<mxfile host="app.diagrams.net" agent="Mozilla/5.0 (Windows NT 10.0; Win64; x64) AppleWebKit/537.36 (KHTML, like Gecko) Chrome/131.0.0.0 Safari/537.36" version="26.0.2" pages="2">
  <diagram name="refalpha" id="87K1tjElocfy5gU_0qFb">
    <mxGraphModel dx="2901" dy="2309" grid="1" gridSize="10" guides="1" tooltips="1" connect="1" arrows="1" fold="1" page="1" pageScale="1" pageWidth="827" pageHeight="1169" math="0" shadow="0">
      <root>
        <mxCell id="0" />
        <mxCell id="1" parent="0" />
        <mxCell id="qBRuHsjLrfEZVzhpxKE1-1" value="" style="rounded=1;whiteSpace=wrap;html=1;hachureGap=4;fillStyle=auto;strokeWidth=5;fontFamily=Architects Daughter;fontSource=https%3A%2F%2Ffonts.googleapis.com%2Fcss%3Ffamily%3DArchitects%2BDaughter;fontSize=20;fillColor=none;fontColor=#ffffff;strokeColor=#0000FF;sketch=1;curveFitting=1;jiggle=2;" vertex="1" parent="1">
          <mxGeometry x="520" y="120" width="910" height="570" as="geometry" />
        </mxCell>
        <mxCell id="qBRuHsjLrfEZVzhpxKE1-2" style="edgeStyle=none;hachureGap=4;html=1;exitX=1;exitY=0.5;exitDx=0;exitDy=0;exitPerimeter=0;entryX=0;entryY=0.5;entryDx=0;entryDy=0;fontFamily=Architects Daughter;fontSource=https%3A%2F%2Ffonts.googleapis.com%2Fcss%3Ffamily%3DArchitects%2BDaughter;fontSize=16;sketch=1;curveFitting=1;jiggle=2;strokeColor=#FFFFFF;" edge="1" parent="1" source="qBRuHsjLrfEZVzhpxKE1-3" target="qBRuHsjLrfEZVzhpxKE1-28">
          <mxGeometry relative="1" as="geometry" />
        </mxCell>
        <mxCell id="qBRuHsjLrfEZVzhpxKE1-3" value="L1&lt;br&gt;Depth&lt;br&gt;HFDA" style="shape=cylinder3;whiteSpace=wrap;html=1;boundedLbl=1;backgroundOutline=1;size=15;hachureGap=4;fontFamily=Architects Daughter;fontSource=https%3A%2F%2Ffonts.googleapis.com%2Fcss%3Ffamily%3DArchitects%2BDaughter;fontSize=20;sketch=1;curveFitting=1;jiggle=2;" vertex="1" parent="1">
          <mxGeometry x="130" y="430" width="60" height="270" as="geometry" />
        </mxCell>
        <mxCell id="qBRuHsjLrfEZVzhpxKE1-4" value="realtime refresh" style="text;html=1;align=center;verticalAlign=middle;resizable=0;points=[];autosize=1;strokeColor=none;fillColor=none;fontSize=20;fontFamily=Architects Daughter;hachureGap=4;fontSource=https%3A%2F%2Ffonts.googleapis.com%2Fcss%3Ffamily%3DArchitects%2BDaughter;sketch=1;curveFitting=1;jiggle=2;" vertex="1" parent="1">
          <mxGeometry x="10" y="30" width="180" height="40" as="geometry" />
        </mxCell>
        <mxCell id="qBRuHsjLrfEZVzhpxKE1-5" value="" style="group;sketch=1;curveFitting=1;jiggle=2;" vertex="1" connectable="0" parent="1">
          <mxGeometry x="10" y="515" width="120" height="60" as="geometry" />
        </mxCell>
        <mxCell id="qBRuHsjLrfEZVzhpxKE1-6" value="" style="verticalLabelPosition=bottom;html=1;verticalAlign=top;strokeWidth=2;shape=mxgraph.lean_mapping.push_arrow;hachureGap=4;fontFamily=Architects Daughter;fontSource=https%3A%2F%2Ffonts.googleapis.com%2Fcss%3Ffamily%3DArchitects%2BDaughter;fontSize=20;sketch=1;curveFitting=1;jiggle=2;" vertex="1" parent="qBRuHsjLrfEZVzhpxKE1-5">
          <mxGeometry y="30" width="120" height="30" as="geometry" />
        </mxCell>
        <mxCell id="qBRuHsjLrfEZVzhpxKE1-7" value="md data" style="text;html=1;align=center;verticalAlign=middle;resizable=0;points=[];autosize=1;strokeColor=none;fillColor=none;fontSize=20;fontFamily=Architects Daughter;hachureGap=4;fontSource=https%3A%2F%2Ffonts.googleapis.com%2Fcss%3Ffamily%3DArchitects%2BDaughter;sketch=1;curveFitting=1;jiggle=2;" vertex="1" parent="qBRuHsjLrfEZVzhpxKE1-5">
          <mxGeometry width="100" height="40" as="geometry" />
        </mxCell>
        <mxCell id="qBRuHsjLrfEZVzhpxKE1-8" value="" style="edgeStyle=orthogonalEdgeStyle;hachureGap=4;html=1;fontFamily=Architects Daughter;fontSource=https%3A%2F%2Ffonts.googleapis.com%2Fcss%3Ffamily%3DArchitects%2BDaughter;fontSize=16;entryX=0;entryY=0.5;entryDx=0;entryDy=0;sketch=1;curveFitting=1;jiggle=2;" edge="1" parent="1" source="qBRuHsjLrfEZVzhpxKE1-10" target="qBRuHsjLrfEZVzhpxKE1-32">
          <mxGeometry relative="1" as="geometry" />
        </mxCell>
        <mxCell id="qBRuHsjLrfEZVzhpxKE1-9" value="" style="edgeStyle=orthogonalEdgeStyle;hachureGap=4;html=1;fontFamily=Architects Daughter;fontSource=https%3A%2F%2Ffonts.googleapis.com%2Fcss%3Ffamily%3DArchitects%2BDaughter;fontSize=16;sketch=1;curveFitting=1;jiggle=2;entryX=0;entryY=0.5;entryDx=0;entryDy=0;" edge="1" parent="1" source="qBRuHsjLrfEZVzhpxKE1-10" target="qBRuHsjLrfEZVzhpxKE1-52">
          <mxGeometry relative="1" as="geometry" />
        </mxCell>
        <mxCell id="qBRuHsjLrfEZVzhpxKE1-10" value="L1&lt;br&gt;HFDA" style="shape=cylinder3;whiteSpace=wrap;html=1;boundedLbl=1;backgroundOutline=1;size=15;hachureGap=4;fontFamily=Architects Daughter;fontSource=https%3A%2F%2Ffonts.googleapis.com%2Fcss%3Ffamily%3DArchitects%2BDaughter;fontSize=20;sketch=1;curveFitting=1;jiggle=2;" vertex="1" parent="1">
          <mxGeometry x="400" y="430" width="60" height="270" as="geometry" />
        </mxCell>
        <mxCell id="qBRuHsjLrfEZVzhpxKE1-11" value="" style="group;sketch=1;curveFitting=1;jiggle=2;" vertex="1" connectable="0" parent="1">
          <mxGeometry x="1081" y="770" width="320" height="350" as="geometry" />
        </mxCell>
        <mxCell id="qBRuHsjLrfEZVzhpxKE1-12" value="" style="shape=card;whiteSpace=wrap;html=1;hachureGap=4;fillStyle=cross-hatch;fontFamily=Architects Daughter;fontSource=https%3A%2F%2Ffonts.googleapis.com%2Fcss%3Ffamily%3DArchitects%2BDaughter;fontSize=20;fillColor=default;sketch=1;curveFitting=1;jiggle=2;" vertex="1" parent="qBRuHsjLrfEZVzhpxKE1-11">
          <mxGeometry width="320" height="350" as="geometry" />
        </mxCell>
        <mxCell id="qBRuHsjLrfEZVzhpxKE1-13" value="" style="verticalLabelPosition=bottom;verticalAlign=top;html=1;shape=mxgraph.basic.patternFillRect;fillStyle=grid;step=5;fillStrokeWidth=0.2;fillStrokeColor=#dddddd;hachureGap=4;fontFamily=Architects Daughter;fontSource=https%3A%2F%2Ffonts.googleapis.com%2Fcss%3Ffamily%3DArchitects%2BDaughter;fontSize=20;fillColor=default;sketch=1;curveFitting=1;jiggle=2;" vertex="1" parent="qBRuHsjLrfEZVzhpxKE1-11">
          <mxGeometry x="25" y="50" width="70" height="70" as="geometry" />
        </mxCell>
        <mxCell id="qBRuHsjLrfEZVzhpxKE1-14" value="" style="verticalLabelPosition=bottom;verticalAlign=top;html=1;shape=mxgraph.basic.patternFillRect;fillStyle=grid;step=5;fillStrokeWidth=0.2;fillStrokeColor=#dddddd;hachureGap=4;fontFamily=Architects Daughter;fontSource=https%3A%2F%2Ffonts.googleapis.com%2Fcss%3Ffamily%3DArchitects%2BDaughter;fontSize=20;fillColor=default;sketch=1;curveFitting=1;jiggle=2;" vertex="1" parent="qBRuHsjLrfEZVzhpxKE1-11">
          <mxGeometry x="125" y="50" width="70" height="70" as="geometry" />
        </mxCell>
        <mxCell id="qBRuHsjLrfEZVzhpxKE1-15" value="" style="verticalLabelPosition=bottom;verticalAlign=top;html=1;shape=mxgraph.basic.patternFillRect;fillStyle=grid;step=5;fillStrokeWidth=0.2;fillStrokeColor=#dddddd;hachureGap=4;fontFamily=Architects Daughter;fontSource=https%3A%2F%2Ffonts.googleapis.com%2Fcss%3Ffamily%3DArchitects%2BDaughter;fontSize=20;fillColor=default;sketch=1;curveFitting=1;jiggle=2;" vertex="1" parent="qBRuHsjLrfEZVzhpxKE1-11">
          <mxGeometry x="215" y="50" width="70" height="70" as="geometry" />
        </mxCell>
        <mxCell id="qBRuHsjLrfEZVzhpxKE1-16" value="" style="verticalLabelPosition=bottom;verticalAlign=top;html=1;shape=mxgraph.basic.patternFillRect;fillStyle=grid;step=5;fillStrokeWidth=0.2;fillStrokeColor=#dddddd;hachureGap=4;fontFamily=Architects Daughter;fontSource=https%3A%2F%2Ffonts.googleapis.com%2Fcss%3Ffamily%3DArchitects%2BDaughter;fontSize=20;fillColor=default;sketch=1;curveFitting=1;jiggle=2;" vertex="1" parent="qBRuHsjLrfEZVzhpxKE1-11">
          <mxGeometry x="25" y="240" width="70" height="70" as="geometry" />
        </mxCell>
        <mxCell id="qBRuHsjLrfEZVzhpxKE1-17" value="" style="verticalLabelPosition=bottom;verticalAlign=top;html=1;shape=mxgraph.basic.patternFillRect;fillStyle=grid;step=5;fillStrokeWidth=0.2;fillStrokeColor=#dddddd;hachureGap=4;fontFamily=Architects Daughter;fontSource=https%3A%2F%2Ffonts.googleapis.com%2Fcss%3Ffamily%3DArchitects%2BDaughter;fontSize=20;fillColor=default;sketch=1;curveFitting=1;jiggle=2;" vertex="1" parent="qBRuHsjLrfEZVzhpxKE1-11">
          <mxGeometry x="125" y="240" width="70" height="70" as="geometry" />
        </mxCell>
        <mxCell id="qBRuHsjLrfEZVzhpxKE1-18" value="" style="verticalLabelPosition=bottom;verticalAlign=top;html=1;shape=mxgraph.basic.patternFillRect;fillStyle=grid;step=5;fillStrokeWidth=0.2;fillStrokeColor=#dddddd;hachureGap=4;fontFamily=Architects Daughter;fontSource=https%3A%2F%2Ffonts.googleapis.com%2Fcss%3Ffamily%3DArchitects%2BDaughter;fontSize=20;fillColor=default;sketch=1;curveFitting=1;jiggle=2;" vertex="1" parent="qBRuHsjLrfEZVzhpxKE1-11">
          <mxGeometry x="215" y="240" width="70" height="70" as="geometry" />
        </mxCell>
        <mxCell id="qBRuHsjLrfEZVzhpxKE1-19" style="edgeStyle=none;hachureGap=4;html=1;exitX=0.25;exitY=0;exitDx=0;exitDy=0;entryX=0.5;entryY=1;entryDx=0;entryDy=0;entryPerimeter=0;fontFamily=Architects Daughter;fontSource=https%3A%2F%2Ffonts.googleapis.com%2Fcss%3Ffamily%3DArchitects%2BDaughter;fontSize=16;sketch=1;curveFitting=1;jiggle=2;" edge="1" parent="qBRuHsjLrfEZVzhpxKE1-11" source="qBRuHsjLrfEZVzhpxKE1-25" target="qBRuHsjLrfEZVzhpxKE1-13">
          <mxGeometry relative="1" as="geometry" />
        </mxCell>
        <mxCell id="qBRuHsjLrfEZVzhpxKE1-20" style="edgeStyle=none;hachureGap=4;html=1;exitX=0.5;exitY=0;exitDx=0;exitDy=0;entryX=0.5;entryY=1;entryDx=0;entryDy=0;entryPerimeter=0;fontFamily=Architects Daughter;fontSource=https%3A%2F%2Ffonts.googleapis.com%2Fcss%3Ffamily%3DArchitects%2BDaughter;fontSize=16;sketch=1;curveFitting=1;jiggle=2;" edge="1" parent="qBRuHsjLrfEZVzhpxKE1-11" source="qBRuHsjLrfEZVzhpxKE1-25" target="qBRuHsjLrfEZVzhpxKE1-14">
          <mxGeometry relative="1" as="geometry" />
        </mxCell>
        <mxCell id="qBRuHsjLrfEZVzhpxKE1-21" style="edgeStyle=none;hachureGap=4;html=1;exitX=0.75;exitY=0;exitDx=0;exitDy=0;entryX=0.75;entryY=1;entryDx=0;entryDy=0;entryPerimeter=0;fontFamily=Architects Daughter;fontSource=https%3A%2F%2Ffonts.googleapis.com%2Fcss%3Ffamily%3DArchitects%2BDaughter;fontSize=16;sketch=1;curveFitting=1;jiggle=2;" edge="1" parent="qBRuHsjLrfEZVzhpxKE1-11" source="qBRuHsjLrfEZVzhpxKE1-25" target="qBRuHsjLrfEZVzhpxKE1-15">
          <mxGeometry relative="1" as="geometry" />
        </mxCell>
        <mxCell id="qBRuHsjLrfEZVzhpxKE1-22" style="edgeStyle=none;hachureGap=4;html=1;exitX=0.25;exitY=1;exitDx=0;exitDy=0;entryX=0.5;entryY=0;entryDx=0;entryDy=0;entryPerimeter=0;fontFamily=Architects Daughter;fontSource=https%3A%2F%2Ffonts.googleapis.com%2Fcss%3Ffamily%3DArchitects%2BDaughter;fontSize=16;sketch=1;curveFitting=1;jiggle=2;" edge="1" parent="qBRuHsjLrfEZVzhpxKE1-11" source="qBRuHsjLrfEZVzhpxKE1-25" target="qBRuHsjLrfEZVzhpxKE1-16">
          <mxGeometry relative="1" as="geometry" />
        </mxCell>
        <mxCell id="qBRuHsjLrfEZVzhpxKE1-23" style="edgeStyle=none;hachureGap=4;html=1;exitX=0.5;exitY=1;exitDx=0;exitDy=0;entryX=0.5;entryY=0;entryDx=0;entryDy=0;entryPerimeter=0;fontFamily=Architects Daughter;fontSource=https%3A%2F%2Ffonts.googleapis.com%2Fcss%3Ffamily%3DArchitects%2BDaughter;fontSize=16;sketch=1;curveFitting=1;jiggle=2;" edge="1" parent="qBRuHsjLrfEZVzhpxKE1-11" source="qBRuHsjLrfEZVzhpxKE1-25" target="qBRuHsjLrfEZVzhpxKE1-17">
          <mxGeometry relative="1" as="geometry" />
        </mxCell>
        <mxCell id="qBRuHsjLrfEZVzhpxKE1-24" style="edgeStyle=none;hachureGap=4;html=1;exitX=0.75;exitY=1;exitDx=0;exitDy=0;entryX=0.5;entryY=0;entryDx=0;entryDy=0;entryPerimeter=0;fontFamily=Architects Daughter;fontSource=https%3A%2F%2Ffonts.googleapis.com%2Fcss%3Ffamily%3DArchitects%2BDaughter;fontSize=16;sketch=1;curveFitting=1;jiggle=2;" edge="1" parent="qBRuHsjLrfEZVzhpxKE1-11" source="qBRuHsjLrfEZVzhpxKE1-25" target="qBRuHsjLrfEZVzhpxKE1-18">
          <mxGeometry relative="1" as="geometry" />
        </mxCell>
        <mxCell id="qBRuHsjLrfEZVzhpxKE1-25" value="L1_SAMPLED_META" style="rounded=1;whiteSpace=wrap;html=1;hachureGap=4;fillStyle=cross-hatch;fontFamily=Architects Daughter;fontSource=https%3A%2F%2Ffonts.googleapis.com%2Fcss%3Ffamily%3DArchitects%2BDaughter;fontSize=20;fillColor=default;sketch=1;curveFitting=1;jiggle=2;" vertex="1" parent="qBRuHsjLrfEZVzhpxKE1-11">
          <mxGeometry x="55" y="145" width="217.5" height="60" as="geometry" />
        </mxCell>
        <mxCell id="qBRuHsjLrfEZVzhpxKE1-26" value="d1 sampled HFDA" style="text;html=1;strokeColor=none;fillColor=none;align=center;verticalAlign=middle;whiteSpace=wrap;rounded=0;hachureGap=4;fillStyle=cross-hatch;fontFamily=Architects Daughter;fontSource=https%3A%2F%2Ffonts.googleapis.com%2Fcss%3Ffamily%3DArchitects%2BDaughter;fontSize=20;sketch=1;curveFitting=1;jiggle=2;" vertex="1" parent="qBRuHsjLrfEZVzhpxKE1-11">
          <mxGeometry x="71.25" y="10" width="185" height="30" as="geometry" />
        </mxCell>
        <mxCell id="qBRuHsjLrfEZVzhpxKE1-27" style="edgeStyle=none;hachureGap=4;html=1;exitX=1;exitY=0.5;exitDx=0;exitDy=0;entryX=0;entryY=0.5;entryDx=0;entryDy=0;entryPerimeter=0;fontFamily=Architects Daughter;fontSource=https%3A%2F%2Ffonts.googleapis.com%2Fcss%3Ffamily%3DArchitects%2BDaughter;fontSize=16;sketch=1;curveFitting=1;jiggle=2;strokeColor=#FFFFFF;" edge="1" parent="1" source="qBRuHsjLrfEZVzhpxKE1-28" target="qBRuHsjLrfEZVzhpxKE1-10">
          <mxGeometry relative="1" as="geometry" />
        </mxCell>
        <mxCell id="qBRuHsjLrfEZVzhpxKE1-28" value="&lt;span style=&quot;&quot;&gt;gen L1&lt;/span&gt;" style="rounded=1;whiteSpace=wrap;html=1;hachureGap=4;fillStyle=cross-hatch;fontFamily=Architects Daughter;fontSource=https%3A%2F%2Ffonts.googleapis.com%2Fcss%3Ffamily%3DArchitects%2BDaughter;fontSize=20;fillColor=default;sketch=1;curveFitting=1;jiggle=2;strokeColor=#00FF00;" vertex="1" parent="1">
          <mxGeometry x="230" y="535" width="120" height="60" as="geometry" />
        </mxCell>
        <mxCell id="qBRuHsjLrfEZVzhpxKE1-29" style="edgeStyle=orthogonalEdgeStyle;hachureGap=4;html=1;exitX=1;exitY=0.5;exitDx=0;exitDy=0;entryX=0;entryY=0;entryDx=0;entryDy=190;entryPerimeter=0;fontFamily=Architects Daughter;fontSource=https%3A%2F%2Ffonts.googleapis.com%2Fcss%3Ffamily%3DArchitects%2BDaughter;fontSize=16;sketch=1;curveFitting=1;jiggle=2;" edge="1" parent="1" source="qBRuHsjLrfEZVzhpxKE1-32" target="qBRuHsjLrfEZVzhpxKE1-12">
          <mxGeometry relative="1" as="geometry" />
        </mxCell>
        <mxCell id="qBRuHsjLrfEZVzhpxKE1-30" value="write" style="edgeLabel;html=1;align=center;verticalAlign=middle;resizable=0;points=[];fontSize=20;fontFamily=Architects Daughter;sketch=1;curveFitting=1;jiggle=2;" vertex="1" connectable="0" parent="qBRuHsjLrfEZVzhpxKE1-29">
          <mxGeometry x="-0.232" y="3" relative="1" as="geometry">
            <mxPoint x="15" as="offset" />
          </mxGeometry>
        </mxCell>
        <mxCell id="qBRuHsjLrfEZVzhpxKE1-31" style="edgeStyle=orthogonalEdgeStyle;sketch=1;hachureGap=4;jiggle=2;curveFitting=1;html=1;exitX=1;exitY=0.5;exitDx=0;exitDy=0;entryX=0;entryY=0;entryDx=0;entryDy=190;entryPerimeter=0;strokeColor=#FFFFFF;fontFamily=Architects Daughter;fontSource=https%3A%2F%2Ffonts.googleapis.com%2Fcss%3Ffamily%3DArchitects%2BDaughter;fontSize=16;" edge="1" parent="1" source="qBRuHsjLrfEZVzhpxKE1-32" target="qBRuHsjLrfEZVzhpxKE1-103">
          <mxGeometry relative="1" as="geometry" />
        </mxCell>
        <mxCell id="qBRuHsjLrfEZVzhpxKE1-32" value="sampling L1" style="whiteSpace=wrap;html=1;fontSize=20;fontFamily=Architects Daughter;hachureGap=4;fontSource=https%3A%2F%2Ffonts.googleapis.com%2Fcss%3Ffamily%3DArchitects%2BDaughter;rounded=1;sketch=1;curveFitting=1;jiggle=2;strokeColor=#00FF00;" vertex="1" parent="1">
          <mxGeometry x="553" y="730" width="120" height="60" as="geometry" />
        </mxCell>
        <mxCell id="qBRuHsjLrfEZVzhpxKE1-33" value="&lt;font style=&quot;font-size: 20px;&quot;&gt;gen xd1&lt;/font&gt;" style="swimlane;whiteSpace=wrap;html=1;rounded=1;hachureGap=4;fillStyle=auto;strokeWidth=5;fontFamily=Architects Daughter;fontSource=https%3A%2F%2Ffonts.googleapis.com%2Fcss%3Ffamily%3DArchitects%2BDaughter;fontSize=40;fillColor=none;startSize=50;sketch=1;curveFitting=1;jiggle=2;strokeColor=#00FF00;" vertex="1" parent="1">
          <mxGeometry x="707" y="-450" width="516" height="400" as="geometry" />
        </mxCell>
        <mxCell id="qBRuHsjLrfEZVzhpxKE1-34" value="self.signalDict" style="shape=datastore;whiteSpace=wrap;html=1;labelPosition=center;verticalLabelPosition=bottom;align=center;verticalAlign=top;rounded=1;hachureGap=4;fillStyle=auto;strokeWidth=5;fontFamily=Architects Daughter;fontSource=https%3A%2F%2Ffonts.googleapis.com%2Fcss%3Ffamily%3DArchitects%2BDaughter;fontSize=20;fillColor=none;sketch=1;curveFitting=1;jiggle=2;" vertex="1" parent="qBRuHsjLrfEZVzhpxKE1-33">
          <mxGeometry x="130" y="131" width="100" height="100" as="geometry" />
        </mxCell>
        <mxCell id="qBRuHsjLrfEZVzhpxKE1-35" value="&lt;font color=&quot;#ffff99&quot;&gt;xd1 logic&lt;/font&gt;" style="html=1;outlineConnect=0;whiteSpace=wrap;fillColor=none;shape=mxgraph.archimate3.process;rounded=1;hachureGap=4;fillStyle=cross-hatch;strokeWidth=5;fontFamily=Architects Daughter;fontSource=https%3A%2F%2Ffonts.googleapis.com%2Fcss%3Ffamily%3DArchitects%2BDaughter;fontSize=20;sketch=1;curveFitting=1;jiggle=2;" vertex="1" parent="qBRuHsjLrfEZVzhpxKE1-33">
          <mxGeometry x="16" y="143.5" width="114" height="75" as="geometry" />
        </mxCell>
        <mxCell id="qBRuHsjLrfEZVzhpxKE1-36" value="read" style="edgeStyle=none;hachureGap=4;html=1;exitX=0;exitY=0.5;exitDx=0;exitDy=0;entryX=1;entryY=0.5;entryDx=0;entryDy=0;fontFamily=Architects Daughter;fontSource=https%3A%2F%2Ffonts.googleapis.com%2Fcss%3Ffamily%3DArchitects%2BDaughter;fontSize=20;fontColor=#FFFF99;endArrow=classic;endFill=1;sketch=1;curveFitting=1;jiggle=2;" edge="1" parent="qBRuHsjLrfEZVzhpxKE1-33" source="qBRuHsjLrfEZVzhpxKE1-37" target="qBRuHsjLrfEZVzhpxKE1-34">
          <mxGeometry relative="1" as="geometry" />
        </mxCell>
        <mxCell id="qBRuHsjLrfEZVzhpxKE1-37" value="read dic&lt;br&gt;write hfda&lt;br&gt;pub" style="shape=process;whiteSpace=wrap;html=1;backgroundOutline=1;rounded=1;labelBackgroundColor=none;hachureGap=4;fillStyle=cross-hatch;strokeWidth=5;fontFamily=Architects Daughter;fontSource=https%3A%2F%2Ffonts.googleapis.com%2Fcss%3Ffamily%3DArchitects%2BDaughter;fontSize=20;fontColor=#FFFF99;fillColor=none;sketch=1;curveFitting=1;jiggle=2;" vertex="1" parent="qBRuHsjLrfEZVzhpxKE1-33">
          <mxGeometry x="280" y="205" width="210" height="140" as="geometry" />
        </mxCell>
        <mxCell id="qBRuHsjLrfEZVzhpxKE1-38" style="edgeStyle=none;hachureGap=4;html=1;entryX=0.5;entryY=0;entryDx=0;entryDy=0;fontFamily=Architects Daughter;fontSource=https%3A%2F%2Ffonts.googleapis.com%2Fcss%3Ffamily%3DArchitects%2BDaughter;fontSize=20;fontColor=#FFFF99;startArrow=none;startFill=0;endArrow=classic;endFill=1;sketch=1;curveFitting=1;jiggle=2;" edge="1" parent="qBRuHsjLrfEZVzhpxKE1-33" source="qBRuHsjLrfEZVzhpxKE1-39" target="qBRuHsjLrfEZVzhpxKE1-37">
          <mxGeometry relative="1" as="geometry" />
        </mxCell>
        <mxCell id="qBRuHsjLrfEZVzhpxKE1-39" value="" style="html=1;verticalLabelPosition=bottom;align=center;labelBackgroundColor=#ffffff;verticalAlign=top;strokeWidth=2;strokeColor=#0080F0;shadow=0;dashed=0;shape=mxgraph.ios7.icons.clock;rounded=1;hachureGap=4;fillStyle=cross-hatch;fontFamily=Architects Daughter;fontSource=https%3A%2F%2Ffonts.googleapis.com%2Fcss%3Ffamily%3DArchitects%2BDaughter;fontSize=20;fontColor=#FFFF99;fillColor=none;sketch=1;curveFitting=1;jiggle=2;" vertex="1" parent="qBRuHsjLrfEZVzhpxKE1-33">
          <mxGeometry x="340" y="67.57" width="82" height="75.93" as="geometry" />
        </mxCell>
        <mxCell id="qBRuHsjLrfEZVzhpxKE1-40" value="every 1 min" style="text;html=1;align=center;verticalAlign=middle;resizable=0;points=[];autosize=1;strokeColor=none;fillColor=none;fontSize=20;fontFamily=Architects Daughter;sketch=1;hachureGap=4;jiggle=2;curveFitting=1;fontSource=https%3A%2F%2Ffonts.googleapis.com%2Fcss%3Ffamily%3DArchitects%2BDaughter;" vertex="1" parent="qBRuHsjLrfEZVzhpxKE1-33">
          <mxGeometry x="380" y="143.5" width="120" height="40" as="geometry" />
        </mxCell>
        <mxCell id="qBRuHsjLrfEZVzhpxKE1-41" value="every 1 min" style="text;html=1;align=center;verticalAlign=middle;resizable=0;points=[];autosize=1;strokeColor=none;fillColor=none;fontSize=20;fontFamily=Architects Daughter;sketch=1;hachureGap=4;jiggle=2;curveFitting=1;fontSource=https%3A%2F%2Ffonts.googleapis.com%2Fcss%3Ffamily%3DArchitects%2BDaughter;" vertex="1" parent="qBRuHsjLrfEZVzhpxKE1-33">
          <mxGeometry x="380" y="143.5" width="120" height="40" as="geometry" />
        </mxCell>
        <mxCell id="qBRuHsjLrfEZVzhpxKE1-42" style="edgeStyle=none;hachureGap=4;html=1;exitX=0;exitY=0;exitDx=0;exitDy=0;entryX=0;entryY=1;entryDx=0;entryDy=0;fontFamily=Architects Daughter;fontSource=https%3A%2F%2Ffonts.googleapis.com%2Fcss%3Ffamily%3DArchitects%2BDaughter;fontSize=20;endArrow=none;endFill=0;sketch=1;curveFitting=1;jiggle=2;" edge="1" parent="1" source="qBRuHsjLrfEZVzhpxKE1-74" target="qBRuHsjLrfEZVzhpxKE1-33">
          <mxGeometry relative="1" as="geometry" />
        </mxCell>
        <mxCell id="qBRuHsjLrfEZVzhpxKE1-43" style="edgeStyle=none;hachureGap=4;html=1;exitX=1;exitY=0;exitDx=0;exitDy=0;fontFamily=Architects Daughter;fontSource=https%3A%2F%2Ffonts.googleapis.com%2Fcss%3Ffamily%3DArchitects%2BDaughter;fontSize=20;endArrow=none;endFill=0;entryX=1;entryY=1;entryDx=0;entryDy=0;sketch=1;curveFitting=1;jiggle=2;" edge="1" parent="1" source="qBRuHsjLrfEZVzhpxKE1-74" target="qBRuHsjLrfEZVzhpxKE1-33">
          <mxGeometry relative="1" as="geometry">
            <mxPoint x="1340" y="570" as="targetPoint" />
          </mxGeometry>
        </mxCell>
        <mxCell id="qBRuHsjLrfEZVzhpxKE1-44" style="edgeStyle=none;hachureGap=4;html=1;exitX=1;exitY=0.5;exitDx=0;exitDy=0;exitPerimeter=0;entryX=0;entryY=0.5;entryDx=0;entryDy=0;fontFamily=Architects Daughter;fontSource=https%3A%2F%2Ffonts.googleapis.com%2Fcss%3Ffamily%3DArchitects%2BDaughter;fontSize=16;sketch=1;curveFitting=1;jiggle=2;strokeColor=#FFFFFF;" edge="1" parent="1" source="qBRuHsjLrfEZVzhpxKE1-45" target="qBRuHsjLrfEZVzhpxKE1-51">
          <mxGeometry relative="1" as="geometry" />
        </mxCell>
        <mxCell id="qBRuHsjLrfEZVzhpxKE1-45" value="L2&lt;br&gt;Depth&lt;br&gt;HFDA" style="shape=cylinder3;whiteSpace=wrap;html=1;boundedLbl=1;backgroundOutline=1;size=15;hachureGap=4;fontFamily=Architects Daughter;fontSource=https%3A%2F%2Ffonts.googleapis.com%2Fcss%3Ffamily%3DArchitects%2BDaughter;fontSize=20;sketch=1;curveFitting=1;jiggle=2;" vertex="1" parent="1">
          <mxGeometry x="120" y="1690" width="60" height="270" as="geometry" />
        </mxCell>
        <mxCell id="qBRuHsjLrfEZVzhpxKE1-46" value="" style="group;sketch=1;curveFitting=1;jiggle=2;" vertex="1" connectable="0" parent="1">
          <mxGeometry y="1775" width="120" height="60" as="geometry" />
        </mxCell>
        <mxCell id="qBRuHsjLrfEZVzhpxKE1-47" value="" style="verticalLabelPosition=bottom;html=1;verticalAlign=top;strokeWidth=2;shape=mxgraph.lean_mapping.push_arrow;hachureGap=4;fontFamily=Architects Daughter;fontSource=https%3A%2F%2Ffonts.googleapis.com%2Fcss%3Ffamily%3DArchitects%2BDaughter;fontSize=20;sketch=1;curveFitting=1;jiggle=2;" vertex="1" parent="qBRuHsjLrfEZVzhpxKE1-46">
          <mxGeometry y="30" width="120" height="30" as="geometry" />
        </mxCell>
        <mxCell id="qBRuHsjLrfEZVzhpxKE1-48" value="md data" style="text;html=1;align=center;verticalAlign=middle;resizable=0;points=[];autosize=1;strokeColor=none;fillColor=none;fontSize=20;fontFamily=Architects Daughter;hachureGap=4;fontSource=https%3A%2F%2Ffonts.googleapis.com%2Fcss%3Ffamily%3DArchitects%2BDaughter;sketch=1;curveFitting=1;jiggle=2;" vertex="1" parent="qBRuHsjLrfEZVzhpxKE1-46">
          <mxGeometry width="100" height="40" as="geometry" />
        </mxCell>
        <mxCell id="qBRuHsjLrfEZVzhpxKE1-49" value="L2&lt;br&gt;HFDA" style="shape=cylinder3;whiteSpace=wrap;html=1;boundedLbl=1;backgroundOutline=1;size=15;hachureGap=4;fontFamily=Architects Daughter;fontSource=https%3A%2F%2Ffonts.googleapis.com%2Fcss%3Ffamily%3DArchitects%2BDaughter;fontSize=20;sketch=1;curveFitting=1;jiggle=2;" vertex="1" parent="1">
          <mxGeometry x="390" y="1690" width="60" height="270" as="geometry" />
        </mxCell>
        <mxCell id="qBRuHsjLrfEZVzhpxKE1-50" style="edgeStyle=none;hachureGap=4;html=1;exitX=1;exitY=0.5;exitDx=0;exitDy=0;entryX=0;entryY=0.5;entryDx=0;entryDy=0;entryPerimeter=0;fontFamily=Architects Daughter;fontSource=https%3A%2F%2Ffonts.googleapis.com%2Fcss%3Ffamily%3DArchitects%2BDaughter;fontSize=16;sketch=1;curveFitting=1;jiggle=2;strokeColor=#FFFFFF;" edge="1" parent="1" source="qBRuHsjLrfEZVzhpxKE1-51" target="qBRuHsjLrfEZVzhpxKE1-49">
          <mxGeometry relative="1" as="geometry" />
        </mxCell>
        <mxCell id="qBRuHsjLrfEZVzhpxKE1-51" value="&lt;span style=&quot;&quot;&gt;gen L2&lt;/span&gt;" style="rounded=1;whiteSpace=wrap;html=1;hachureGap=4;fillStyle=cross-hatch;fontFamily=Architects Daughter;fontSource=https%3A%2F%2Ffonts.googleapis.com%2Fcss%3Ffamily%3DArchitects%2BDaughter;fontSize=20;fillColor=default;sketch=1;curveFitting=1;jiggle=2;strokeColor=#FFFF00;" vertex="1" parent="1">
          <mxGeometry x="220" y="1795" width="120" height="60" as="geometry" />
        </mxCell>
        <mxCell id="qBRuHsjLrfEZVzhpxKE1-52" value="convert L1" style="whiteSpace=wrap;html=1;fontSize=20;fontFamily=Architects Daughter;hachureGap=4;fontSource=https%3A%2F%2Ffonts.googleapis.com%2Fcss%3Ffamily%3DArchitects%2BDaughter;rounded=1;sketch=1;curveFitting=1;jiggle=2;strokeColor=#00FF00;" vertex="1" parent="1">
          <mxGeometry x="553" y="340" width="120" height="60" as="geometry" />
        </mxCell>
        <mxCell id="qBRuHsjLrfEZVzhpxKE1-53" value="C1SGI&lt;br&gt;L1&lt;br&gt;HFDA" style="shape=cylinder3;whiteSpace=wrap;html=1;boundedLbl=1;backgroundOutline=1;size=15;hachureGap=4;fontFamily=Architects Daughter;fontSource=https%3A%2F%2Ffonts.googleapis.com%2Fcss%3Ffamily%3DArchitects%2BDaughter;fontSize=20;sketch=1;curveFitting=1;jiggle=2;" vertex="1" parent="1">
          <mxGeometry x="760" y="235" width="60" height="270" as="geometry" />
        </mxCell>
        <mxCell id="qBRuHsjLrfEZVzhpxKE1-54" style="edgeStyle=none;hachureGap=4;html=1;exitX=1;exitY=0.5;exitDx=0;exitDy=0;entryX=0;entryY=0.5;entryDx=0;entryDy=0;entryPerimeter=0;fontFamily=Architects Daughter;fontSource=https%3A%2F%2Ffonts.googleapis.com%2Fcss%3Ffamily%3DArchitects%2BDaughter;fontSize=16;sketch=1;curveFitting=1;jiggle=2;" edge="1" parent="1" source="qBRuHsjLrfEZVzhpxKE1-52" target="qBRuHsjLrfEZVzhpxKE1-53">
          <mxGeometry relative="1" as="geometry" />
        </mxCell>
        <mxCell id="qBRuHsjLrfEZVzhpxKE1-55" value="write" style="edgeLabel;html=1;align=center;verticalAlign=middle;resizable=0;points=[];fontSize=20;fontFamily=Architects Daughter;sketch=1;curveFitting=1;jiggle=2;" vertex="1" connectable="0" parent="qBRuHsjLrfEZVzhpxKE1-54">
          <mxGeometry x="-0.1502" y="4" relative="1" as="geometry">
            <mxPoint y="-1" as="offset" />
          </mxGeometry>
        </mxCell>
        <mxCell id="qBRuHsjLrfEZVzhpxKE1-56" value="&lt;font style=&quot;font-size: 40px;&quot;&gt;L1 xd1&amp;nbsp;&lt;/font&gt;" style="text;html=1;strokeColor=none;fillColor=none;align=center;verticalAlign=middle;whiteSpace=wrap;rounded=0;hachureGap=4;fillStyle=auto;strokeWidth=5;fontFamily=Architects Daughter;fontSource=https%3A%2F%2Ffonts.googleapis.com%2Fcss%3Ffamily%3DArchitects%2BDaughter;fontSize=20;sketch=1;curveFitting=1;jiggle=2;" vertex="1" parent="1">
          <mxGeometry x="540" y="160" width="146" height="80" as="geometry" />
        </mxCell>
        <mxCell id="qBRuHsjLrfEZVzhpxKE1-57" value="" style="group;sketch=1;curveFitting=1;jiggle=2;" vertex="1" connectable="0" parent="1">
          <mxGeometry x="1081" y="310" width="320" height="350" as="geometry" />
        </mxCell>
        <mxCell id="qBRuHsjLrfEZVzhpxKE1-58" value="" style="shape=card;whiteSpace=wrap;html=1;hachureGap=4;fillStyle=cross-hatch;fontFamily=Architects Daughter;fontSource=https%3A%2F%2Ffonts.googleapis.com%2Fcss%3Ffamily%3DArchitects%2BDaughter;fontSize=20;fillColor=default;sketch=1;curveFitting=1;jiggle=2;" vertex="1" parent="qBRuHsjLrfEZVzhpxKE1-57">
          <mxGeometry width="320" height="350" as="geometry" />
        </mxCell>
        <mxCell id="qBRuHsjLrfEZVzhpxKE1-59" value="" style="verticalLabelPosition=bottom;verticalAlign=top;html=1;shape=mxgraph.basic.patternFillRect;fillStyle=grid;step=5;fillStrokeWidth=0.2;fillStrokeColor=#dddddd;hachureGap=4;fontFamily=Architects Daughter;fontSource=https%3A%2F%2Ffonts.googleapis.com%2Fcss%3Ffamily%3DArchitects%2BDaughter;fontSize=20;fillColor=default;sketch=1;curveFitting=1;jiggle=2;" vertex="1" parent="qBRuHsjLrfEZVzhpxKE1-57">
          <mxGeometry x="25" y="50" width="70" height="70" as="geometry" />
        </mxCell>
        <mxCell id="qBRuHsjLrfEZVzhpxKE1-60" value="" style="verticalLabelPosition=bottom;verticalAlign=top;html=1;shape=mxgraph.basic.patternFillRect;fillStyle=grid;step=5;fillStrokeWidth=0.2;fillStrokeColor=#dddddd;hachureGap=4;fontFamily=Architects Daughter;fontSource=https%3A%2F%2Ffonts.googleapis.com%2Fcss%3Ffamily%3DArchitects%2BDaughter;fontSize=20;fillColor=default;sketch=1;curveFitting=1;jiggle=2;" vertex="1" parent="qBRuHsjLrfEZVzhpxKE1-57">
          <mxGeometry x="125" y="50" width="70" height="70" as="geometry" />
        </mxCell>
        <mxCell id="qBRuHsjLrfEZVzhpxKE1-61" value="" style="verticalLabelPosition=bottom;verticalAlign=top;html=1;shape=mxgraph.basic.patternFillRect;fillStyle=grid;step=5;fillStrokeWidth=0.2;fillStrokeColor=#dddddd;hachureGap=4;fontFamily=Architects Daughter;fontSource=https%3A%2F%2Ffonts.googleapis.com%2Fcss%3Ffamily%3DArchitects%2BDaughter;fontSize=20;fillColor=default;sketch=1;curveFitting=1;jiggle=2;" vertex="1" parent="qBRuHsjLrfEZVzhpxKE1-57">
          <mxGeometry x="215" y="50" width="70" height="70" as="geometry" />
        </mxCell>
        <mxCell id="qBRuHsjLrfEZVzhpxKE1-62" value="" style="verticalLabelPosition=bottom;verticalAlign=top;html=1;shape=mxgraph.basic.patternFillRect;fillStyle=grid;step=5;fillStrokeWidth=0.2;fillStrokeColor=#dddddd;hachureGap=4;fontFamily=Architects Daughter;fontSource=https%3A%2F%2Ffonts.googleapis.com%2Fcss%3Ffamily%3DArchitects%2BDaughter;fontSize=20;fillColor=default;sketch=1;curveFitting=1;jiggle=2;" vertex="1" parent="qBRuHsjLrfEZVzhpxKE1-57">
          <mxGeometry x="25" y="240" width="70" height="70" as="geometry" />
        </mxCell>
        <mxCell id="qBRuHsjLrfEZVzhpxKE1-63" value="" style="verticalLabelPosition=bottom;verticalAlign=top;html=1;shape=mxgraph.basic.patternFillRect;fillStyle=grid;step=5;fillStrokeWidth=0.2;fillStrokeColor=#dddddd;hachureGap=4;fontFamily=Architects Daughter;fontSource=https%3A%2F%2Ffonts.googleapis.com%2Fcss%3Ffamily%3DArchitects%2BDaughter;fontSize=20;fillColor=default;sketch=1;curveFitting=1;jiggle=2;" vertex="1" parent="qBRuHsjLrfEZVzhpxKE1-57">
          <mxGeometry x="125" y="240" width="70" height="70" as="geometry" />
        </mxCell>
        <mxCell id="qBRuHsjLrfEZVzhpxKE1-64" value="" style="verticalLabelPosition=bottom;verticalAlign=top;html=1;shape=mxgraph.basic.patternFillRect;fillStyle=grid;step=5;fillStrokeWidth=0.2;fillStrokeColor=#dddddd;hachureGap=4;fontFamily=Architects Daughter;fontSource=https%3A%2F%2Ffonts.googleapis.com%2Fcss%3Ffamily%3DArchitects%2BDaughter;fontSize=20;fillColor=default;sketch=1;curveFitting=1;jiggle=2;" vertex="1" parent="qBRuHsjLrfEZVzhpxKE1-57">
          <mxGeometry x="215" y="240" width="70" height="70" as="geometry" />
        </mxCell>
        <mxCell id="qBRuHsjLrfEZVzhpxKE1-65" style="edgeStyle=none;hachureGap=4;html=1;exitX=0.25;exitY=0;exitDx=0;exitDy=0;entryX=0.5;entryY=1;entryDx=0;entryDy=0;entryPerimeter=0;fontFamily=Architects Daughter;fontSource=https%3A%2F%2Ffonts.googleapis.com%2Fcss%3Ffamily%3DArchitects%2BDaughter;fontSize=16;sketch=1;curveFitting=1;jiggle=2;" edge="1" parent="qBRuHsjLrfEZVzhpxKE1-57" source="qBRuHsjLrfEZVzhpxKE1-71" target="qBRuHsjLrfEZVzhpxKE1-59">
          <mxGeometry relative="1" as="geometry" />
        </mxCell>
        <mxCell id="qBRuHsjLrfEZVzhpxKE1-66" style="edgeStyle=none;hachureGap=4;html=1;exitX=0.5;exitY=0;exitDx=0;exitDy=0;entryX=0.5;entryY=1;entryDx=0;entryDy=0;entryPerimeter=0;fontFamily=Architects Daughter;fontSource=https%3A%2F%2Ffonts.googleapis.com%2Fcss%3Ffamily%3DArchitects%2BDaughter;fontSize=16;sketch=1;curveFitting=1;jiggle=2;" edge="1" parent="qBRuHsjLrfEZVzhpxKE1-57" source="qBRuHsjLrfEZVzhpxKE1-71" target="qBRuHsjLrfEZVzhpxKE1-60">
          <mxGeometry relative="1" as="geometry" />
        </mxCell>
        <mxCell id="qBRuHsjLrfEZVzhpxKE1-67" style="edgeStyle=none;hachureGap=4;html=1;exitX=0.75;exitY=0;exitDx=0;exitDy=0;entryX=0.75;entryY=1;entryDx=0;entryDy=0;entryPerimeter=0;fontFamily=Architects Daughter;fontSource=https%3A%2F%2Ffonts.googleapis.com%2Fcss%3Ffamily%3DArchitects%2BDaughter;fontSize=16;sketch=1;curveFitting=1;jiggle=2;" edge="1" parent="qBRuHsjLrfEZVzhpxKE1-57" source="qBRuHsjLrfEZVzhpxKE1-71" target="qBRuHsjLrfEZVzhpxKE1-61">
          <mxGeometry relative="1" as="geometry" />
        </mxCell>
        <mxCell id="qBRuHsjLrfEZVzhpxKE1-68" style="edgeStyle=none;hachureGap=4;html=1;exitX=0.25;exitY=1;exitDx=0;exitDy=0;entryX=0.5;entryY=0;entryDx=0;entryDy=0;entryPerimeter=0;fontFamily=Architects Daughter;fontSource=https%3A%2F%2Ffonts.googleapis.com%2Fcss%3Ffamily%3DArchitects%2BDaughter;fontSize=16;sketch=1;curveFitting=1;jiggle=2;" edge="1" parent="qBRuHsjLrfEZVzhpxKE1-57" source="qBRuHsjLrfEZVzhpxKE1-71" target="qBRuHsjLrfEZVzhpxKE1-62">
          <mxGeometry relative="1" as="geometry" />
        </mxCell>
        <mxCell id="qBRuHsjLrfEZVzhpxKE1-69" style="edgeStyle=none;hachureGap=4;html=1;exitX=0.5;exitY=1;exitDx=0;exitDy=0;entryX=0.5;entryY=0;entryDx=0;entryDy=0;entryPerimeter=0;fontFamily=Architects Daughter;fontSource=https%3A%2F%2Ffonts.googleapis.com%2Fcss%3Ffamily%3DArchitects%2BDaughter;fontSize=16;sketch=1;curveFitting=1;jiggle=2;" edge="1" parent="qBRuHsjLrfEZVzhpxKE1-57" source="qBRuHsjLrfEZVzhpxKE1-71" target="qBRuHsjLrfEZVzhpxKE1-63">
          <mxGeometry relative="1" as="geometry" />
        </mxCell>
        <mxCell id="qBRuHsjLrfEZVzhpxKE1-70" style="edgeStyle=none;hachureGap=4;html=1;exitX=0.75;exitY=1;exitDx=0;exitDy=0;entryX=0.5;entryY=0;entryDx=0;entryDy=0;entryPerimeter=0;fontFamily=Architects Daughter;fontSource=https%3A%2F%2Ffonts.googleapis.com%2Fcss%3Ffamily%3DArchitects%2BDaughter;fontSize=16;sketch=1;curveFitting=1;jiggle=2;" edge="1" parent="qBRuHsjLrfEZVzhpxKE1-57" source="qBRuHsjLrfEZVzhpxKE1-71" target="qBRuHsjLrfEZVzhpxKE1-64">
          <mxGeometry relative="1" as="geometry" />
        </mxCell>
        <mxCell id="qBRuHsjLrfEZVzhpxKE1-71" value="L1_XD1_META" style="rounded=1;whiteSpace=wrap;html=1;hachureGap=4;fillStyle=cross-hatch;fontFamily=Architects Daughter;fontSource=https%3A%2F%2Ffonts.googleapis.com%2Fcss%3Ffamily%3DArchitects%2BDaughter;fontSize=20;fillColor=default;sketch=1;curveFitting=1;jiggle=2;" vertex="1" parent="qBRuHsjLrfEZVzhpxKE1-57">
          <mxGeometry x="55" y="145" width="217.5" height="60" as="geometry" />
        </mxCell>
        <mxCell id="qBRuHsjLrfEZVzhpxKE1-72" value="d1 sampled HFDA" style="text;html=1;strokeColor=none;fillColor=none;align=center;verticalAlign=middle;whiteSpace=wrap;rounded=0;hachureGap=4;fillStyle=cross-hatch;fontFamily=Architects Daughter;fontSource=https%3A%2F%2Ffonts.googleapis.com%2Fcss%3Ffamily%3DArchitects%2BDaughter;fontSize=20;sketch=1;curveFitting=1;jiggle=2;" vertex="1" parent="qBRuHsjLrfEZVzhpxKE1-57">
          <mxGeometry x="71.25" y="10" width="185" height="30" as="geometry" />
        </mxCell>
        <mxCell id="qBRuHsjLrfEZVzhpxKE1-73" style="edgeStyle=orthogonalEdgeStyle;sketch=1;hachureGap=4;jiggle=2;curveFitting=1;html=1;exitX=1;exitY=0.5;exitDx=0;exitDy=0;entryX=0;entryY=0;entryDx=175;entryDy=0;entryPerimeter=0;strokeColor=#FFFFFF;fontFamily=Architects Daughter;fontSource=https%3A%2F%2Ffonts.googleapis.com%2Fcss%3Ffamily%3DArchitects%2BDaughter;fontSize=16;" edge="1" parent="1" source="qBRuHsjLrfEZVzhpxKE1-74" target="qBRuHsjLrfEZVzhpxKE1-58">
          <mxGeometry relative="1" as="geometry" />
        </mxCell>
        <mxCell id="qBRuHsjLrfEZVzhpxKE1-74" value="gen xd1" style="whiteSpace=wrap;html=1;fontSize=20;fontFamily=Architects Daughter;hachureGap=4;fontSource=https%3A%2F%2Ffonts.googleapis.com%2Fcss%3Ffamily%3DArchitects%2BDaughter;rounded=1;sketch=1;curveFitting=1;jiggle=2;strokeColor=#00FF00;" vertex="1" parent="1">
          <mxGeometry x="910" y="220" width="120" height="60" as="geometry" />
        </mxCell>
        <mxCell id="qBRuHsjLrfEZVzhpxKE1-75" style="edgeStyle=orthogonalEdgeStyle;hachureGap=4;html=1;exitX=1;exitY=0.5;exitDx=0;exitDy=0;exitPerimeter=0;entryX=0;entryY=0.5;entryDx=0;entryDy=0;fontFamily=Architects Daughter;fontSource=https%3A%2F%2Ffonts.googleapis.com%2Fcss%3Ffamily%3DArchitects%2BDaughter;fontSize=16;sketch=1;curveFitting=1;jiggle=2;" edge="1" parent="1" source="qBRuHsjLrfEZVzhpxKE1-53" target="qBRuHsjLrfEZVzhpxKE1-74">
          <mxGeometry relative="1" as="geometry" />
        </mxCell>
        <mxCell id="qBRuHsjLrfEZVzhpxKE1-76" value="" style="edgeStyle=orthogonalEdgeStyle;hachureGap=4;html=1;fontFamily=Architects Daughter;fontSource=https%3A%2F%2Ffonts.googleapis.com%2Fcss%3Ffamily%3DArchitects%2BDaughter;fontSize=16;sketch=1;curveFitting=1;jiggle=2;" edge="1" parent="1" source="qBRuHsjLrfEZVzhpxKE1-49" target="qBRuHsjLrfEZVzhpxKE1-78">
          <mxGeometry relative="1" as="geometry" />
        </mxCell>
        <mxCell id="qBRuHsjLrfEZVzhpxKE1-77" value="" style="rounded=1;whiteSpace=wrap;html=1;hachureGap=4;fillStyle=auto;strokeWidth=5;fontFamily=Architects Daughter;fontSource=https%3A%2F%2Ffonts.googleapis.com%2Fcss%3Ffamily%3DArchitects%2BDaughter;fontSize=20;fillColor=none;fontColor=#ffffff;strokeColor=#0000FF;sketch=1;curveFitting=1;jiggle=2;" vertex="1" parent="1">
          <mxGeometry x="543" y="1710" width="877" height="450" as="geometry" />
        </mxCell>
        <mxCell id="qBRuHsjLrfEZVzhpxKE1-78" value="convert L2" style="whiteSpace=wrap;html=1;fontSize=20;fontFamily=Architects Daughter;hachureGap=4;fontSource=https%3A%2F%2Ffonts.googleapis.com%2Fcss%3Ffamily%3DArchitects%2BDaughter;rounded=1;sketch=1;curveFitting=1;jiggle=2;strokeColor=#00FF00;" vertex="1" parent="1">
          <mxGeometry x="563" y="1880" width="120" height="60" as="geometry" />
        </mxCell>
        <mxCell id="qBRuHsjLrfEZVzhpxKE1-79" value="C1SGI&lt;br&gt;L2&lt;br&gt;HFDA" style="shape=cylinder3;whiteSpace=wrap;html=1;boundedLbl=1;backgroundOutline=1;size=15;hachureGap=4;fontFamily=Architects Daughter;fontSource=https%3A%2F%2Ffonts.googleapis.com%2Fcss%3Ffamily%3DArchitects%2BDaughter;fontSize=20;sketch=1;curveFitting=1;jiggle=2;" vertex="1" parent="1">
          <mxGeometry x="773" y="1775" width="60" height="270" as="geometry" />
        </mxCell>
        <mxCell id="qBRuHsjLrfEZVzhpxKE1-80" style="edgeStyle=none;hachureGap=4;html=1;exitX=1;exitY=0.5;exitDx=0;exitDy=0;entryX=0;entryY=0.5;entryDx=0;entryDy=0;entryPerimeter=0;fontFamily=Architects Daughter;fontSource=https%3A%2F%2Ffonts.googleapis.com%2Fcss%3Ffamily%3DArchitects%2BDaughter;fontSize=16;sketch=1;curveFitting=1;jiggle=2;" edge="1" parent="1" source="qBRuHsjLrfEZVzhpxKE1-78" target="qBRuHsjLrfEZVzhpxKE1-79">
          <mxGeometry relative="1" as="geometry" />
        </mxCell>
        <mxCell id="qBRuHsjLrfEZVzhpxKE1-81" value="write" style="edgeLabel;html=1;align=center;verticalAlign=middle;resizable=0;points=[];fontSize=20;fontFamily=Architects Daughter;sketch=1;curveFitting=1;jiggle=2;" vertex="1" connectable="0" parent="qBRuHsjLrfEZVzhpxKE1-80">
          <mxGeometry x="-0.1502" y="4" relative="1" as="geometry">
            <mxPoint y="-1" as="offset" />
          </mxGeometry>
        </mxCell>
        <mxCell id="qBRuHsjLrfEZVzhpxKE1-82" value="&lt;font style=&quot;font-size: 40px;&quot;&gt;L2 xd1&amp;nbsp;&lt;/font&gt;" style="text;html=1;strokeColor=none;fillColor=none;align=center;verticalAlign=middle;whiteSpace=wrap;rounded=0;hachureGap=4;fillStyle=auto;strokeWidth=5;fontFamily=Architects Daughter;fontSource=https%3A%2F%2Ffonts.googleapis.com%2Fcss%3Ffamily%3DArchitects%2BDaughter;fontSize=20;sketch=1;curveFitting=1;jiggle=2;" vertex="1" parent="1">
          <mxGeometry x="563" y="2060" width="146" height="80" as="geometry" />
        </mxCell>
        <mxCell id="qBRuHsjLrfEZVzhpxKE1-83" value="" style="group;sketch=1;curveFitting=1;jiggle=2;" vertex="1" connectable="0" parent="1">
          <mxGeometry x="1071" y="1780" width="320" height="350" as="geometry" />
        </mxCell>
        <mxCell id="qBRuHsjLrfEZVzhpxKE1-84" value="" style="shape=card;whiteSpace=wrap;html=1;hachureGap=4;fillStyle=cross-hatch;fontFamily=Architects Daughter;fontSource=https%3A%2F%2Ffonts.googleapis.com%2Fcss%3Ffamily%3DArchitects%2BDaughter;fontSize=20;fillColor=default;sketch=1;curveFitting=1;jiggle=2;" vertex="1" parent="qBRuHsjLrfEZVzhpxKE1-83">
          <mxGeometry width="320" height="350" as="geometry" />
        </mxCell>
        <mxCell id="qBRuHsjLrfEZVzhpxKE1-85" value="" style="verticalLabelPosition=bottom;verticalAlign=top;html=1;shape=mxgraph.basic.patternFillRect;fillStyle=grid;step=5;fillStrokeWidth=0.2;fillStrokeColor=#dddddd;hachureGap=4;fontFamily=Architects Daughter;fontSource=https%3A%2F%2Ffonts.googleapis.com%2Fcss%3Ffamily%3DArchitects%2BDaughter;fontSize=20;fillColor=default;sketch=1;curveFitting=1;jiggle=2;" vertex="1" parent="qBRuHsjLrfEZVzhpxKE1-83">
          <mxGeometry x="25" y="50" width="70" height="70" as="geometry" />
        </mxCell>
        <mxCell id="qBRuHsjLrfEZVzhpxKE1-86" value="" style="verticalLabelPosition=bottom;verticalAlign=top;html=1;shape=mxgraph.basic.patternFillRect;fillStyle=grid;step=5;fillStrokeWidth=0.2;fillStrokeColor=#dddddd;hachureGap=4;fontFamily=Architects Daughter;fontSource=https%3A%2F%2Ffonts.googleapis.com%2Fcss%3Ffamily%3DArchitects%2BDaughter;fontSize=20;fillColor=default;sketch=1;curveFitting=1;jiggle=2;" vertex="1" parent="qBRuHsjLrfEZVzhpxKE1-83">
          <mxGeometry x="125" y="50" width="70" height="70" as="geometry" />
        </mxCell>
        <mxCell id="qBRuHsjLrfEZVzhpxKE1-87" value="" style="verticalLabelPosition=bottom;verticalAlign=top;html=1;shape=mxgraph.basic.patternFillRect;fillStyle=grid;step=5;fillStrokeWidth=0.2;fillStrokeColor=#dddddd;hachureGap=4;fontFamily=Architects Daughter;fontSource=https%3A%2F%2Ffonts.googleapis.com%2Fcss%3Ffamily%3DArchitects%2BDaughter;fontSize=20;fillColor=default;sketch=1;curveFitting=1;jiggle=2;" vertex="1" parent="qBRuHsjLrfEZVzhpxKE1-83">
          <mxGeometry x="215" y="50" width="70" height="70" as="geometry" />
        </mxCell>
        <mxCell id="qBRuHsjLrfEZVzhpxKE1-88" value="" style="verticalLabelPosition=bottom;verticalAlign=top;html=1;shape=mxgraph.basic.patternFillRect;fillStyle=grid;step=5;fillStrokeWidth=0.2;fillStrokeColor=#dddddd;hachureGap=4;fontFamily=Architects Daughter;fontSource=https%3A%2F%2Ffonts.googleapis.com%2Fcss%3Ffamily%3DArchitects%2BDaughter;fontSize=20;fillColor=default;sketch=1;curveFitting=1;jiggle=2;" vertex="1" parent="qBRuHsjLrfEZVzhpxKE1-83">
          <mxGeometry x="25" y="240" width="70" height="70" as="geometry" />
        </mxCell>
        <mxCell id="qBRuHsjLrfEZVzhpxKE1-89" value="" style="verticalLabelPosition=bottom;verticalAlign=top;html=1;shape=mxgraph.basic.patternFillRect;fillStyle=grid;step=5;fillStrokeWidth=0.2;fillStrokeColor=#dddddd;hachureGap=4;fontFamily=Architects Daughter;fontSource=https%3A%2F%2Ffonts.googleapis.com%2Fcss%3Ffamily%3DArchitects%2BDaughter;fontSize=20;fillColor=default;sketch=1;curveFitting=1;jiggle=2;" vertex="1" parent="qBRuHsjLrfEZVzhpxKE1-83">
          <mxGeometry x="125" y="240" width="70" height="70" as="geometry" />
        </mxCell>
        <mxCell id="qBRuHsjLrfEZVzhpxKE1-90" value="" style="verticalLabelPosition=bottom;verticalAlign=top;html=1;shape=mxgraph.basic.patternFillRect;fillStyle=grid;step=5;fillStrokeWidth=0.2;fillStrokeColor=#dddddd;hachureGap=4;fontFamily=Architects Daughter;fontSource=https%3A%2F%2Ffonts.googleapis.com%2Fcss%3Ffamily%3DArchitects%2BDaughter;fontSize=20;fillColor=default;sketch=1;curveFitting=1;jiggle=2;" vertex="1" parent="qBRuHsjLrfEZVzhpxKE1-83">
          <mxGeometry x="215" y="240" width="70" height="70" as="geometry" />
        </mxCell>
        <mxCell id="qBRuHsjLrfEZVzhpxKE1-91" style="edgeStyle=none;hachureGap=4;html=1;exitX=0.25;exitY=0;exitDx=0;exitDy=0;entryX=0.5;entryY=1;entryDx=0;entryDy=0;entryPerimeter=0;fontFamily=Architects Daughter;fontSource=https%3A%2F%2Ffonts.googleapis.com%2Fcss%3Ffamily%3DArchitects%2BDaughter;fontSize=16;sketch=1;curveFitting=1;jiggle=2;" edge="1" parent="qBRuHsjLrfEZVzhpxKE1-83" source="qBRuHsjLrfEZVzhpxKE1-97" target="qBRuHsjLrfEZVzhpxKE1-85">
          <mxGeometry relative="1" as="geometry" />
        </mxCell>
        <mxCell id="qBRuHsjLrfEZVzhpxKE1-92" style="edgeStyle=none;hachureGap=4;html=1;exitX=0.5;exitY=0;exitDx=0;exitDy=0;entryX=0.5;entryY=1;entryDx=0;entryDy=0;entryPerimeter=0;fontFamily=Architects Daughter;fontSource=https%3A%2F%2Ffonts.googleapis.com%2Fcss%3Ffamily%3DArchitects%2BDaughter;fontSize=16;sketch=1;curveFitting=1;jiggle=2;" edge="1" parent="qBRuHsjLrfEZVzhpxKE1-83" source="qBRuHsjLrfEZVzhpxKE1-97" target="qBRuHsjLrfEZVzhpxKE1-86">
          <mxGeometry relative="1" as="geometry" />
        </mxCell>
        <mxCell id="qBRuHsjLrfEZVzhpxKE1-93" style="edgeStyle=none;hachureGap=4;html=1;exitX=0.75;exitY=0;exitDx=0;exitDy=0;entryX=0.75;entryY=1;entryDx=0;entryDy=0;entryPerimeter=0;fontFamily=Architects Daughter;fontSource=https%3A%2F%2Ffonts.googleapis.com%2Fcss%3Ffamily%3DArchitects%2BDaughter;fontSize=16;sketch=1;curveFitting=1;jiggle=2;" edge="1" parent="qBRuHsjLrfEZVzhpxKE1-83" source="qBRuHsjLrfEZVzhpxKE1-97" target="qBRuHsjLrfEZVzhpxKE1-87">
          <mxGeometry relative="1" as="geometry" />
        </mxCell>
        <mxCell id="qBRuHsjLrfEZVzhpxKE1-94" style="edgeStyle=none;hachureGap=4;html=1;exitX=0.25;exitY=1;exitDx=0;exitDy=0;entryX=0.5;entryY=0;entryDx=0;entryDy=0;entryPerimeter=0;fontFamily=Architects Daughter;fontSource=https%3A%2F%2Ffonts.googleapis.com%2Fcss%3Ffamily%3DArchitects%2BDaughter;fontSize=16;sketch=1;curveFitting=1;jiggle=2;" edge="1" parent="qBRuHsjLrfEZVzhpxKE1-83" source="qBRuHsjLrfEZVzhpxKE1-97" target="qBRuHsjLrfEZVzhpxKE1-88">
          <mxGeometry relative="1" as="geometry" />
        </mxCell>
        <mxCell id="qBRuHsjLrfEZVzhpxKE1-95" style="edgeStyle=none;hachureGap=4;html=1;exitX=0.5;exitY=1;exitDx=0;exitDy=0;entryX=0.5;entryY=0;entryDx=0;entryDy=0;entryPerimeter=0;fontFamily=Architects Daughter;fontSource=https%3A%2F%2Ffonts.googleapis.com%2Fcss%3Ffamily%3DArchitects%2BDaughter;fontSize=16;sketch=1;curveFitting=1;jiggle=2;" edge="1" parent="qBRuHsjLrfEZVzhpxKE1-83" source="qBRuHsjLrfEZVzhpxKE1-97" target="qBRuHsjLrfEZVzhpxKE1-89">
          <mxGeometry relative="1" as="geometry" />
        </mxCell>
        <mxCell id="qBRuHsjLrfEZVzhpxKE1-96" style="edgeStyle=none;hachureGap=4;html=1;exitX=0.75;exitY=1;exitDx=0;exitDy=0;entryX=0.5;entryY=0;entryDx=0;entryDy=0;entryPerimeter=0;fontFamily=Architects Daughter;fontSource=https%3A%2F%2Ffonts.googleapis.com%2Fcss%3Ffamily%3DArchitects%2BDaughter;fontSize=16;sketch=1;curveFitting=1;jiggle=2;" edge="1" parent="qBRuHsjLrfEZVzhpxKE1-83" source="qBRuHsjLrfEZVzhpxKE1-97" target="qBRuHsjLrfEZVzhpxKE1-90">
          <mxGeometry relative="1" as="geometry" />
        </mxCell>
        <mxCell id="qBRuHsjLrfEZVzhpxKE1-97" value="L2_XD1_META" style="rounded=1;whiteSpace=wrap;html=1;hachureGap=4;fillStyle=cross-hatch;fontFamily=Architects Daughter;fontSource=https%3A%2F%2Ffonts.googleapis.com%2Fcss%3Ffamily%3DArchitects%2BDaughter;fontSize=20;fillColor=default;sketch=1;curveFitting=1;jiggle=2;" vertex="1" parent="qBRuHsjLrfEZVzhpxKE1-83">
          <mxGeometry x="55" y="145" width="217.5" height="60" as="geometry" />
        </mxCell>
        <mxCell id="qBRuHsjLrfEZVzhpxKE1-98" value="d1 sampled HFDA" style="text;html=1;strokeColor=none;fillColor=none;align=center;verticalAlign=middle;whiteSpace=wrap;rounded=0;hachureGap=4;fillStyle=cross-hatch;fontFamily=Architects Daughter;fontSource=https%3A%2F%2Ffonts.googleapis.com%2Fcss%3Ffamily%3DArchitects%2BDaughter;fontSize=20;sketch=1;curveFitting=1;jiggle=2;" vertex="1" parent="qBRuHsjLrfEZVzhpxKE1-83">
          <mxGeometry x="71.25" y="10" width="185" height="30" as="geometry" />
        </mxCell>
        <mxCell id="qBRuHsjLrfEZVzhpxKE1-99" style="edgeStyle=orthogonalEdgeStyle;hachureGap=4;html=1;exitX=1;exitY=0.5;exitDx=0;exitDy=0;entryX=0;entryY=0;entryDx=0;entryDy=190;entryPerimeter=0;fontFamily=Architects Daughter;fontSource=https%3A%2F%2Ffonts.googleapis.com%2Fcss%3Ffamily%3DArchitects%2BDaughter;fontSize=20;sketch=1;curveFitting=1;jiggle=2;" edge="1" parent="1" source="qBRuHsjLrfEZVzhpxKE1-100" target="qBRuHsjLrfEZVzhpxKE1-84">
          <mxGeometry relative="1" as="geometry" />
        </mxCell>
        <mxCell id="qBRuHsjLrfEZVzhpxKE1-100" value="gen xd1" style="whiteSpace=wrap;html=1;fontSize=20;fontFamily=Architects Daughter;hachureGap=4;fontSource=https%3A%2F%2Ffonts.googleapis.com%2Fcss%3Ffamily%3DArchitects%2BDaughter;rounded=1;sketch=1;curveFitting=1;jiggle=2;strokeColor=#00FF00;" vertex="1" parent="1">
          <mxGeometry x="905" y="1880" width="120" height="60" as="geometry" />
        </mxCell>
        <mxCell id="qBRuHsjLrfEZVzhpxKE1-101" style="edgeStyle=orthogonalEdgeStyle;hachureGap=4;html=1;exitX=1;exitY=0.5;exitDx=0;exitDy=0;exitPerimeter=0;entryX=0;entryY=0.5;entryDx=0;entryDy=0;fontFamily=Architects Daughter;fontSource=https%3A%2F%2Ffonts.googleapis.com%2Fcss%3Ffamily%3DArchitects%2BDaughter;fontSize=16;sketch=1;curveFitting=1;jiggle=2;" edge="1" parent="1" source="qBRuHsjLrfEZVzhpxKE1-79" target="qBRuHsjLrfEZVzhpxKE1-100">
          <mxGeometry relative="1" as="geometry" />
        </mxCell>
        <mxCell id="qBRuHsjLrfEZVzhpxKE1-102" value="" style="group;sketch=1;curveFitting=1;jiggle=2;" vertex="1" connectable="0" parent="1">
          <mxGeometry x="1081" y="1240" width="320" height="350" as="geometry" />
        </mxCell>
        <mxCell id="qBRuHsjLrfEZVzhpxKE1-103" value="" style="shape=card;whiteSpace=wrap;html=1;hachureGap=4;fillStyle=cross-hatch;fontFamily=Architects Daughter;fontSource=https%3A%2F%2Ffonts.googleapis.com%2Fcss%3Ffamily%3DArchitects%2BDaughter;fontSize=20;fillColor=default;sketch=1;curveFitting=1;jiggle=2;" vertex="1" parent="qBRuHsjLrfEZVzhpxKE1-102">
          <mxGeometry width="320" height="350" as="geometry" />
        </mxCell>
        <mxCell id="qBRuHsjLrfEZVzhpxKE1-104" value="" style="verticalLabelPosition=bottom;verticalAlign=top;html=1;shape=mxgraph.basic.patternFillRect;fillStyle=grid;step=5;fillStrokeWidth=0.2;fillStrokeColor=#dddddd;hachureGap=4;fontFamily=Architects Daughter;fontSource=https%3A%2F%2Ffonts.googleapis.com%2Fcss%3Ffamily%3DArchitects%2BDaughter;fontSize=20;fillColor=default;sketch=1;curveFitting=1;jiggle=2;" vertex="1" parent="qBRuHsjLrfEZVzhpxKE1-102">
          <mxGeometry x="25" y="50" width="70" height="70" as="geometry" />
        </mxCell>
        <mxCell id="qBRuHsjLrfEZVzhpxKE1-105" value="" style="verticalLabelPosition=bottom;verticalAlign=top;html=1;shape=mxgraph.basic.patternFillRect;fillStyle=grid;step=5;fillStrokeWidth=0.2;fillStrokeColor=#dddddd;hachureGap=4;fontFamily=Architects Daughter;fontSource=https%3A%2F%2Ffonts.googleapis.com%2Fcss%3Ffamily%3DArchitects%2BDaughter;fontSize=20;fillColor=default;sketch=1;curveFitting=1;jiggle=2;" vertex="1" parent="qBRuHsjLrfEZVzhpxKE1-102">
          <mxGeometry x="125" y="50" width="70" height="70" as="geometry" />
        </mxCell>
        <mxCell id="qBRuHsjLrfEZVzhpxKE1-106" value="" style="verticalLabelPosition=bottom;verticalAlign=top;html=1;shape=mxgraph.basic.patternFillRect;fillStyle=grid;step=5;fillStrokeWidth=0.2;fillStrokeColor=#dddddd;hachureGap=4;fontFamily=Architects Daughter;fontSource=https%3A%2F%2Ffonts.googleapis.com%2Fcss%3Ffamily%3DArchitects%2BDaughter;fontSize=20;fillColor=default;sketch=1;curveFitting=1;jiggle=2;" vertex="1" parent="qBRuHsjLrfEZVzhpxKE1-102">
          <mxGeometry x="215" y="50" width="70" height="70" as="geometry" />
        </mxCell>
        <mxCell id="qBRuHsjLrfEZVzhpxKE1-107" value="" style="verticalLabelPosition=bottom;verticalAlign=top;html=1;shape=mxgraph.basic.patternFillRect;fillStyle=grid;step=5;fillStrokeWidth=0.2;fillStrokeColor=#dddddd;hachureGap=4;fontFamily=Architects Daughter;fontSource=https%3A%2F%2Ffonts.googleapis.com%2Fcss%3Ffamily%3DArchitects%2BDaughter;fontSize=20;fillColor=default;sketch=1;curveFitting=1;jiggle=2;" vertex="1" parent="qBRuHsjLrfEZVzhpxKE1-102">
          <mxGeometry x="25" y="240" width="70" height="70" as="geometry" />
        </mxCell>
        <mxCell id="qBRuHsjLrfEZVzhpxKE1-108" value="" style="verticalLabelPosition=bottom;verticalAlign=top;html=1;shape=mxgraph.basic.patternFillRect;fillStyle=grid;step=5;fillStrokeWidth=0.2;fillStrokeColor=#dddddd;hachureGap=4;fontFamily=Architects Daughter;fontSource=https%3A%2F%2Ffonts.googleapis.com%2Fcss%3Ffamily%3DArchitects%2BDaughter;fontSize=20;fillColor=default;sketch=1;curveFitting=1;jiggle=2;" vertex="1" parent="qBRuHsjLrfEZVzhpxKE1-102">
          <mxGeometry x="125" y="240" width="70" height="70" as="geometry" />
        </mxCell>
        <mxCell id="qBRuHsjLrfEZVzhpxKE1-109" value="" style="verticalLabelPosition=bottom;verticalAlign=top;html=1;shape=mxgraph.basic.patternFillRect;fillStyle=grid;step=5;fillStrokeWidth=0.2;fillStrokeColor=#dddddd;hachureGap=4;fontFamily=Architects Daughter;fontSource=https%3A%2F%2Ffonts.googleapis.com%2Fcss%3Ffamily%3DArchitects%2BDaughter;fontSize=20;fillColor=default;sketch=1;curveFitting=1;jiggle=2;" vertex="1" parent="qBRuHsjLrfEZVzhpxKE1-102">
          <mxGeometry x="215" y="240" width="70" height="70" as="geometry" />
        </mxCell>
        <mxCell id="qBRuHsjLrfEZVzhpxKE1-110" style="edgeStyle=none;hachureGap=4;html=1;exitX=0.25;exitY=0;exitDx=0;exitDy=0;entryX=0.5;entryY=1;entryDx=0;entryDy=0;entryPerimeter=0;fontFamily=Architects Daughter;fontSource=https%3A%2F%2Ffonts.googleapis.com%2Fcss%3Ffamily%3DArchitects%2BDaughter;fontSize=16;sketch=1;curveFitting=1;jiggle=2;" edge="1" parent="qBRuHsjLrfEZVzhpxKE1-102" source="qBRuHsjLrfEZVzhpxKE1-116" target="qBRuHsjLrfEZVzhpxKE1-104">
          <mxGeometry relative="1" as="geometry" />
        </mxCell>
        <mxCell id="qBRuHsjLrfEZVzhpxKE1-111" style="edgeStyle=none;hachureGap=4;html=1;exitX=0.5;exitY=0;exitDx=0;exitDy=0;entryX=0.5;entryY=1;entryDx=0;entryDy=0;entryPerimeter=0;fontFamily=Architects Daughter;fontSource=https%3A%2F%2Ffonts.googleapis.com%2Fcss%3Ffamily%3DArchitects%2BDaughter;fontSize=16;sketch=1;curveFitting=1;jiggle=2;" edge="1" parent="qBRuHsjLrfEZVzhpxKE1-102" source="qBRuHsjLrfEZVzhpxKE1-116" target="qBRuHsjLrfEZVzhpxKE1-105">
          <mxGeometry relative="1" as="geometry" />
        </mxCell>
        <mxCell id="qBRuHsjLrfEZVzhpxKE1-112" style="edgeStyle=none;hachureGap=4;html=1;exitX=0.75;exitY=0;exitDx=0;exitDy=0;entryX=0.75;entryY=1;entryDx=0;entryDy=0;entryPerimeter=0;fontFamily=Architects Daughter;fontSource=https%3A%2F%2Ffonts.googleapis.com%2Fcss%3Ffamily%3DArchitects%2BDaughter;fontSize=16;sketch=1;curveFitting=1;jiggle=2;" edge="1" parent="qBRuHsjLrfEZVzhpxKE1-102" source="qBRuHsjLrfEZVzhpxKE1-116" target="qBRuHsjLrfEZVzhpxKE1-106">
          <mxGeometry relative="1" as="geometry" />
        </mxCell>
        <mxCell id="qBRuHsjLrfEZVzhpxKE1-113" style="edgeStyle=none;hachureGap=4;html=1;exitX=0.25;exitY=1;exitDx=0;exitDy=0;entryX=0.5;entryY=0;entryDx=0;entryDy=0;entryPerimeter=0;fontFamily=Architects Daughter;fontSource=https%3A%2F%2Ffonts.googleapis.com%2Fcss%3Ffamily%3DArchitects%2BDaughter;fontSize=16;sketch=1;curveFitting=1;jiggle=2;" edge="1" parent="qBRuHsjLrfEZVzhpxKE1-102" source="qBRuHsjLrfEZVzhpxKE1-116" target="qBRuHsjLrfEZVzhpxKE1-107">
          <mxGeometry relative="1" as="geometry" />
        </mxCell>
        <mxCell id="qBRuHsjLrfEZVzhpxKE1-114" style="edgeStyle=none;hachureGap=4;html=1;exitX=0.5;exitY=1;exitDx=0;exitDy=0;entryX=0.5;entryY=0;entryDx=0;entryDy=0;entryPerimeter=0;fontFamily=Architects Daughter;fontSource=https%3A%2F%2Ffonts.googleapis.com%2Fcss%3Ffamily%3DArchitects%2BDaughter;fontSize=16;sketch=1;curveFitting=1;jiggle=2;" edge="1" parent="qBRuHsjLrfEZVzhpxKE1-102" source="qBRuHsjLrfEZVzhpxKE1-116" target="qBRuHsjLrfEZVzhpxKE1-108">
          <mxGeometry relative="1" as="geometry" />
        </mxCell>
        <mxCell id="qBRuHsjLrfEZVzhpxKE1-115" style="edgeStyle=none;hachureGap=4;html=1;exitX=0.75;exitY=1;exitDx=0;exitDy=0;entryX=0.5;entryY=0;entryDx=0;entryDy=0;entryPerimeter=0;fontFamily=Architects Daughter;fontSource=https%3A%2F%2Ffonts.googleapis.com%2Fcss%3Ffamily%3DArchitects%2BDaughter;fontSize=16;sketch=1;curveFitting=1;jiggle=2;" edge="1" parent="qBRuHsjLrfEZVzhpxKE1-102" source="qBRuHsjLrfEZVzhpxKE1-116" target="qBRuHsjLrfEZVzhpxKE1-109">
          <mxGeometry relative="1" as="geometry" />
        </mxCell>
        <mxCell id="qBRuHsjLrfEZVzhpxKE1-116" value="L1&#39;_SAMPLED_META" style="rounded=1;whiteSpace=wrap;html=1;hachureGap=4;fillStyle=cross-hatch;fontFamily=Architects Daughter;fontSource=https%3A%2F%2Ffonts.googleapis.com%2Fcss%3Ffamily%3DArchitects%2BDaughter;fontSize=20;fillColor=default;sketch=1;curveFitting=1;jiggle=2;" vertex="1" parent="qBRuHsjLrfEZVzhpxKE1-102">
          <mxGeometry x="55" y="145" width="217.5" height="60" as="geometry" />
        </mxCell>
        <mxCell id="qBRuHsjLrfEZVzhpxKE1-117" value="d5 sampled HFDA" style="text;html=1;strokeColor=none;fillColor=none;align=center;verticalAlign=middle;whiteSpace=wrap;rounded=0;hachureGap=4;fillStyle=cross-hatch;fontFamily=Architects Daughter;fontSource=https%3A%2F%2Ffonts.googleapis.com%2Fcss%3Ffamily%3DArchitects%2BDaughter;fontSize=20;sketch=1;curveFitting=1;jiggle=2;" vertex="1" parent="qBRuHsjLrfEZVzhpxKE1-102">
          <mxGeometry x="71.25" y="10" width="185" height="30" as="geometry" />
        </mxCell>
        <mxCell id="qBRuHsjLrfEZVzhpxKE1-118" style="edgeStyle=orthogonalEdgeStyle;sketch=1;hachureGap=4;jiggle=2;curveFitting=1;html=1;exitX=1;exitY=0.5;exitDx=0;exitDy=0;exitPerimeter=0;strokeColor=#FFFFFF;fontFamily=Architects Daughter;fontSource=https%3A%2F%2Ffonts.googleapis.com%2Fcss%3Ffamily%3DArchitects%2BDaughter;fontSize=16;entryX=0;entryY=0.25;entryDx=0;entryDy=0;" edge="1" parent="1" source="qBRuHsjLrfEZVzhpxKE1-58" target="qBRuHsjLrfEZVzhpxKE1-123">
          <mxGeometry relative="1" as="geometry">
            <mxPoint x="1970" y="1090" as="targetPoint" />
          </mxGeometry>
        </mxCell>
        <mxCell id="qBRuHsjLrfEZVzhpxKE1-119" style="edgeStyle=orthogonalEdgeStyle;sketch=1;hachureGap=4;jiggle=2;curveFitting=1;html=1;exitX=1;exitY=0.5;exitDx=0;exitDy=0;strokeColor=#FFFFFF;fontFamily=Architects Daughter;fontSource=https%3A%2F%2Ffonts.googleapis.com%2Fcss%3Ffamily%3DArchitects%2BDaughter;fontSize=16;" edge="1" parent="1" source="qBRuHsjLrfEZVzhpxKE1-123" target="qBRuHsjLrfEZVzhpxKE1-140">
          <mxGeometry relative="1" as="geometry" />
        </mxCell>
        <mxCell id="qBRuHsjLrfEZVzhpxKE1-120" value="write" style="edgeLabel;html=1;align=center;verticalAlign=middle;resizable=0;points=[];fontSize=20;fontFamily=Architects Daughter;" vertex="1" connectable="0" parent="qBRuHsjLrfEZVzhpxKE1-119">
          <mxGeometry x="0.0288" y="-2" relative="1" as="geometry">
            <mxPoint y="-1" as="offset" />
          </mxGeometry>
        </mxCell>
        <mxCell id="qBRuHsjLrfEZVzhpxKE1-121" style="sketch=1;hachureGap=4;jiggle=2;curveFitting=1;html=1;exitX=0;exitY=0;exitDx=0;exitDy=0;entryX=0;entryY=1;entryDx=0;entryDy=0;strokeColor=#FFFFFF;fontFamily=Architects Daughter;fontSource=https%3A%2F%2Ffonts.googleapis.com%2Fcss%3Ffamily%3DArchitects%2BDaughter;fontSize=16;endArrow=none;endFill=0;" edge="1" parent="1" source="qBRuHsjLrfEZVzhpxKE1-123" target="qBRuHsjLrfEZVzhpxKE1-149">
          <mxGeometry relative="1" as="geometry" />
        </mxCell>
        <mxCell id="qBRuHsjLrfEZVzhpxKE1-122" style="edgeStyle=none;sketch=1;hachureGap=4;jiggle=2;curveFitting=1;html=1;exitX=1;exitY=0;exitDx=0;exitDy=0;entryX=1;entryY=1;entryDx=0;entryDy=0;strokeColor=#FFFFFF;fontFamily=Architects Daughter;fontSource=https%3A%2F%2Ffonts.googleapis.com%2Fcss%3Ffamily%3DArchitects%2BDaughter;fontSize=16;endArrow=none;endFill=0;" edge="1" parent="1" source="qBRuHsjLrfEZVzhpxKE1-123" target="qBRuHsjLrfEZVzhpxKE1-149">
          <mxGeometry relative="1" as="geometry" />
        </mxCell>
        <mxCell id="qBRuHsjLrfEZVzhpxKE1-123" value="run alpha" style="whiteSpace=wrap;html=1;fontSize=20;fontFamily=Architects Daughter;hachureGap=4;fillStyle=cross-hatch;fontSource=https%3A%2F%2Ffonts.googleapis.com%2Fcss%3Ffamily%3DArchitects%2BDaughter;sketch=1;curveFitting=1;jiggle=2;strokeColor=#FFFF00;" vertex="1" parent="1">
          <mxGeometry x="1900" y="640" width="120" height="60" as="geometry" />
        </mxCell>
        <mxCell id="qBRuHsjLrfEZVzhpxKE1-124" style="edgeStyle=orthogonalEdgeStyle;sketch=1;hachureGap=4;jiggle=2;curveFitting=1;html=1;exitX=1;exitY=0.5;exitDx=0;exitDy=0;exitPerimeter=0;entryX=0;entryY=0.75;entryDx=0;entryDy=0;strokeColor=#FFFFFF;fontFamily=Architects Daughter;fontSource=https%3A%2F%2Ffonts.googleapis.com%2Fcss%3Ffamily%3DArchitects%2BDaughter;fontSize=16;" edge="1" parent="1" source="qBRuHsjLrfEZVzhpxKE1-103" target="qBRuHsjLrfEZVzhpxKE1-123">
          <mxGeometry relative="1" as="geometry" />
        </mxCell>
        <mxCell id="qBRuHsjLrfEZVzhpxKE1-125" value="" style="group;sketch=1;curveFitting=1;jiggle=2;" vertex="1" connectable="0" parent="1">
          <mxGeometry x="2220" y="1200" width="320" height="350" as="geometry" />
        </mxCell>
        <mxCell id="qBRuHsjLrfEZVzhpxKE1-126" value="" style="shape=card;whiteSpace=wrap;html=1;hachureGap=4;fillStyle=cross-hatch;fontFamily=Architects Daughter;fontSource=https%3A%2F%2Ffonts.googleapis.com%2Fcss%3Ffamily%3DArchitects%2BDaughter;fontSize=20;fillColor=default;sketch=1;curveFitting=1;jiggle=2;" vertex="1" parent="qBRuHsjLrfEZVzhpxKE1-125">
          <mxGeometry width="320" height="350" as="geometry" />
        </mxCell>
        <mxCell id="qBRuHsjLrfEZVzhpxKE1-127" value="" style="verticalLabelPosition=bottom;verticalAlign=top;html=1;shape=mxgraph.basic.patternFillRect;fillStyle=grid;step=5;fillStrokeWidth=0.2;fillStrokeColor=#dddddd;hachureGap=4;fontFamily=Architects Daughter;fontSource=https%3A%2F%2Ffonts.googleapis.com%2Fcss%3Ffamily%3DArchitects%2BDaughter;fontSize=20;fillColor=default;sketch=1;curveFitting=1;jiggle=2;" vertex="1" parent="qBRuHsjLrfEZVzhpxKE1-125">
          <mxGeometry x="25" y="50" width="70" height="70" as="geometry" />
        </mxCell>
        <mxCell id="qBRuHsjLrfEZVzhpxKE1-128" value="" style="verticalLabelPosition=bottom;verticalAlign=top;html=1;shape=mxgraph.basic.patternFillRect;fillStyle=grid;step=5;fillStrokeWidth=0.2;fillStrokeColor=#dddddd;hachureGap=4;fontFamily=Architects Daughter;fontSource=https%3A%2F%2Ffonts.googleapis.com%2Fcss%3Ffamily%3DArchitects%2BDaughter;fontSize=20;fillColor=default;sketch=1;curveFitting=1;jiggle=2;" vertex="1" parent="qBRuHsjLrfEZVzhpxKE1-125">
          <mxGeometry x="125" y="50" width="70" height="70" as="geometry" />
        </mxCell>
        <mxCell id="qBRuHsjLrfEZVzhpxKE1-129" value="" style="verticalLabelPosition=bottom;verticalAlign=top;html=1;shape=mxgraph.basic.patternFillRect;fillStyle=grid;step=5;fillStrokeWidth=0.2;fillStrokeColor=#dddddd;hachureGap=4;fontFamily=Architects Daughter;fontSource=https%3A%2F%2Ffonts.googleapis.com%2Fcss%3Ffamily%3DArchitects%2BDaughter;fontSize=20;fillColor=default;sketch=1;curveFitting=1;jiggle=2;" vertex="1" parent="qBRuHsjLrfEZVzhpxKE1-125">
          <mxGeometry x="215" y="50" width="70" height="70" as="geometry" />
        </mxCell>
        <mxCell id="qBRuHsjLrfEZVzhpxKE1-130" value="" style="verticalLabelPosition=bottom;verticalAlign=top;html=1;shape=mxgraph.basic.patternFillRect;fillStyle=grid;step=5;fillStrokeWidth=0.2;fillStrokeColor=#dddddd;hachureGap=4;fontFamily=Architects Daughter;fontSource=https%3A%2F%2Ffonts.googleapis.com%2Fcss%3Ffamily%3DArchitects%2BDaughter;fontSize=20;fillColor=default;sketch=1;curveFitting=1;jiggle=2;" vertex="1" parent="qBRuHsjLrfEZVzhpxKE1-125">
          <mxGeometry x="25" y="240" width="70" height="70" as="geometry" />
        </mxCell>
        <mxCell id="qBRuHsjLrfEZVzhpxKE1-131" value="" style="verticalLabelPosition=bottom;verticalAlign=top;html=1;shape=mxgraph.basic.patternFillRect;fillStyle=grid;step=5;fillStrokeWidth=0.2;fillStrokeColor=#dddddd;hachureGap=4;fontFamily=Architects Daughter;fontSource=https%3A%2F%2Ffonts.googleapis.com%2Fcss%3Ffamily%3DArchitects%2BDaughter;fontSize=20;fillColor=default;sketch=1;curveFitting=1;jiggle=2;" vertex="1" parent="qBRuHsjLrfEZVzhpxKE1-125">
          <mxGeometry x="125" y="240" width="70" height="70" as="geometry" />
        </mxCell>
        <mxCell id="qBRuHsjLrfEZVzhpxKE1-132" value="" style="verticalLabelPosition=bottom;verticalAlign=top;html=1;shape=mxgraph.basic.patternFillRect;fillStyle=grid;step=5;fillStrokeWidth=0.2;fillStrokeColor=#dddddd;hachureGap=4;fontFamily=Architects Daughter;fontSource=https%3A%2F%2Ffonts.googleapis.com%2Fcss%3Ffamily%3DArchitects%2BDaughter;fontSize=20;fillColor=default;sketch=1;curveFitting=1;jiggle=2;" vertex="1" parent="qBRuHsjLrfEZVzhpxKE1-125">
          <mxGeometry x="215" y="240" width="70" height="70" as="geometry" />
        </mxCell>
        <mxCell id="qBRuHsjLrfEZVzhpxKE1-133" style="edgeStyle=none;hachureGap=4;html=1;exitX=0.25;exitY=0;exitDx=0;exitDy=0;entryX=0.5;entryY=1;entryDx=0;entryDy=0;entryPerimeter=0;fontFamily=Architects Daughter;fontSource=https%3A%2F%2Ffonts.googleapis.com%2Fcss%3Ffamily%3DArchitects%2BDaughter;fontSize=16;sketch=1;curveFitting=1;jiggle=2;" edge="1" parent="qBRuHsjLrfEZVzhpxKE1-125" source="qBRuHsjLrfEZVzhpxKE1-139" target="qBRuHsjLrfEZVzhpxKE1-127">
          <mxGeometry relative="1" as="geometry" />
        </mxCell>
        <mxCell id="qBRuHsjLrfEZVzhpxKE1-134" style="edgeStyle=none;hachureGap=4;html=1;exitX=0.5;exitY=0;exitDx=0;exitDy=0;entryX=0.5;entryY=1;entryDx=0;entryDy=0;entryPerimeter=0;fontFamily=Architects Daughter;fontSource=https%3A%2F%2Ffonts.googleapis.com%2Fcss%3Ffamily%3DArchitects%2BDaughter;fontSize=16;sketch=1;curveFitting=1;jiggle=2;" edge="1" parent="qBRuHsjLrfEZVzhpxKE1-125" source="qBRuHsjLrfEZVzhpxKE1-139" target="qBRuHsjLrfEZVzhpxKE1-128">
          <mxGeometry relative="1" as="geometry" />
        </mxCell>
        <mxCell id="qBRuHsjLrfEZVzhpxKE1-135" style="edgeStyle=none;hachureGap=4;html=1;exitX=0.75;exitY=0;exitDx=0;exitDy=0;entryX=0.75;entryY=1;entryDx=0;entryDy=0;entryPerimeter=0;fontFamily=Architects Daughter;fontSource=https%3A%2F%2Ffonts.googleapis.com%2Fcss%3Ffamily%3DArchitects%2BDaughter;fontSize=16;sketch=1;curveFitting=1;jiggle=2;" edge="1" parent="qBRuHsjLrfEZVzhpxKE1-125" source="qBRuHsjLrfEZVzhpxKE1-139" target="qBRuHsjLrfEZVzhpxKE1-129">
          <mxGeometry relative="1" as="geometry" />
        </mxCell>
        <mxCell id="qBRuHsjLrfEZVzhpxKE1-136" style="edgeStyle=none;hachureGap=4;html=1;exitX=0.25;exitY=1;exitDx=0;exitDy=0;entryX=0.5;entryY=0;entryDx=0;entryDy=0;entryPerimeter=0;fontFamily=Architects Daughter;fontSource=https%3A%2F%2Ffonts.googleapis.com%2Fcss%3Ffamily%3DArchitects%2BDaughter;fontSize=16;sketch=1;curveFitting=1;jiggle=2;" edge="1" parent="qBRuHsjLrfEZVzhpxKE1-125" source="qBRuHsjLrfEZVzhpxKE1-139" target="qBRuHsjLrfEZVzhpxKE1-130">
          <mxGeometry relative="1" as="geometry" />
        </mxCell>
        <mxCell id="qBRuHsjLrfEZVzhpxKE1-137" style="edgeStyle=none;hachureGap=4;html=1;exitX=0.5;exitY=1;exitDx=0;exitDy=0;entryX=0.5;entryY=0;entryDx=0;entryDy=0;entryPerimeter=0;fontFamily=Architects Daughter;fontSource=https%3A%2F%2Ffonts.googleapis.com%2Fcss%3Ffamily%3DArchitects%2BDaughter;fontSize=16;sketch=1;curveFitting=1;jiggle=2;" edge="1" parent="qBRuHsjLrfEZVzhpxKE1-125" source="qBRuHsjLrfEZVzhpxKE1-139" target="qBRuHsjLrfEZVzhpxKE1-131">
          <mxGeometry relative="1" as="geometry" />
        </mxCell>
        <mxCell id="qBRuHsjLrfEZVzhpxKE1-138" style="edgeStyle=none;hachureGap=4;html=1;exitX=0.75;exitY=1;exitDx=0;exitDy=0;entryX=0.5;entryY=0;entryDx=0;entryDy=0;entryPerimeter=0;fontFamily=Architects Daughter;fontSource=https%3A%2F%2Ffonts.googleapis.com%2Fcss%3Ffamily%3DArchitects%2BDaughter;fontSize=16;sketch=1;curveFitting=1;jiggle=2;" edge="1" parent="qBRuHsjLrfEZVzhpxKE1-125" source="qBRuHsjLrfEZVzhpxKE1-139" target="qBRuHsjLrfEZVzhpxKE1-132">
          <mxGeometry relative="1" as="geometry" />
        </mxCell>
        <mxCell id="qBRuHsjLrfEZVzhpxKE1-139" value="ALPHA_META" style="rounded=1;whiteSpace=wrap;html=1;hachureGap=4;fillStyle=cross-hatch;fontFamily=Architects Daughter;fontSource=https%3A%2F%2Ffonts.googleapis.com%2Fcss%3Ffamily%3DArchitects%2BDaughter;fontSize=20;fillColor=default;sketch=1;curveFitting=1;jiggle=2;" vertex="1" parent="qBRuHsjLrfEZVzhpxKE1-125">
          <mxGeometry x="55" y="145" width="217.5" height="60" as="geometry" />
        </mxCell>
        <mxCell id="qBRuHsjLrfEZVzhpxKE1-140" value="d5 sampled HFDA" style="text;html=1;strokeColor=none;fillColor=none;align=center;verticalAlign=middle;whiteSpace=wrap;rounded=0;hachureGap=4;fillStyle=cross-hatch;fontFamily=Architects Daughter;fontSource=https%3A%2F%2Ffonts.googleapis.com%2Fcss%3Ffamily%3DArchitects%2BDaughter;fontSize=20;sketch=1;curveFitting=1;jiggle=2;" vertex="1" parent="qBRuHsjLrfEZVzhpxKE1-125">
          <mxGeometry x="71.25" y="10" width="185" height="30" as="geometry" />
        </mxCell>
        <mxCell id="qBRuHsjLrfEZVzhpxKE1-141" style="edgeStyle=orthogonalEdgeStyle;sketch=1;hachureGap=4;jiggle=2;curveFitting=1;html=1;exitX=1;exitY=0.5;exitDx=0;exitDy=0;entryX=0.5;entryY=1;entryDx=0;entryDy=0;entryPerimeter=0;strokeColor=#FFFFFF;fontFamily=Architects Daughter;fontSource=https%3A%2F%2Ffonts.googleapis.com%2Fcss%3Ffamily%3DArchitects%2BDaughter;fontSize=16;" edge="1" parent="1" source="qBRuHsjLrfEZVzhpxKE1-143" target="qBRuHsjLrfEZVzhpxKE1-126">
          <mxGeometry relative="1" as="geometry" />
        </mxCell>
        <mxCell id="qBRuHsjLrfEZVzhpxKE1-142" value="write" style="edgeLabel;html=1;align=center;verticalAlign=middle;resizable=0;points=[];fontSize=20;fontFamily=Architects Daughter;" vertex="1" connectable="0" parent="qBRuHsjLrfEZVzhpxKE1-141">
          <mxGeometry x="0.2858" y="5" relative="1" as="geometry">
            <mxPoint y="1" as="offset" />
          </mxGeometry>
        </mxCell>
        <mxCell id="qBRuHsjLrfEZVzhpxKE1-143" value="run alpha" style="whiteSpace=wrap;html=1;fontSize=20;fontFamily=Architects Daughter;hachureGap=4;fillStyle=cross-hatch;fontSource=https%3A%2F%2Ffonts.googleapis.com%2Fcss%3Ffamily%3DArchitects%2BDaughter;sketch=1;curveFitting=1;jiggle=2;strokeColor=#FFFF00;" vertex="1" parent="1">
          <mxGeometry x="1900" y="1835" width="120" height="60" as="geometry" />
        </mxCell>
        <mxCell id="qBRuHsjLrfEZVzhpxKE1-144" style="edgeStyle=orthogonalEdgeStyle;sketch=1;hachureGap=4;jiggle=2;curveFitting=1;html=1;exitX=1.003;exitY=0.66;exitDx=0;exitDy=0;exitPerimeter=0;entryX=0;entryY=0.25;entryDx=0;entryDy=0;strokeColor=#FFFFFF;fontFamily=Architects Daughter;fontSource=https%3A%2F%2Ffonts.googleapis.com%2Fcss%3Ffamily%3DArchitects%2BDaughter;fontSize=16;" edge="1" parent="1" source="qBRuHsjLrfEZVzhpxKE1-103" target="qBRuHsjLrfEZVzhpxKE1-143">
          <mxGeometry relative="1" as="geometry" />
        </mxCell>
        <mxCell id="qBRuHsjLrfEZVzhpxKE1-145" style="edgeStyle=orthogonalEdgeStyle;sketch=1;hachureGap=4;jiggle=2;curveFitting=1;html=1;exitX=1;exitY=0.5;exitDx=0;exitDy=0;exitPerimeter=0;entryX=0;entryY=0.75;entryDx=0;entryDy=0;strokeColor=#FFFFFF;fontFamily=Architects Daughter;fontSource=https%3A%2F%2Ffonts.googleapis.com%2Fcss%3Ffamily%3DArchitects%2BDaughter;fontSize=16;" edge="1" parent="1" source="qBRuHsjLrfEZVzhpxKE1-84" target="qBRuHsjLrfEZVzhpxKE1-143">
          <mxGeometry relative="1" as="geometry" />
        </mxCell>
        <mxCell id="qBRuHsjLrfEZVzhpxKE1-146" style="edgeStyle=orthogonalEdgeStyle;sketch=1;hachureGap=4;jiggle=2;curveFitting=1;html=1;exitX=0.5;exitY=0;exitDx=0;exitDy=0;entryX=0.5;entryY=1;entryDx=0;entryDy=0;strokeColor=#FFFFFF;fontFamily=Architects Daughter;fontSource=https%3A%2F%2Ffonts.googleapis.com%2Fcss%3Ffamily%3DArchitects%2BDaughter;fontSize=16;" edge="1" parent="1" source="qBRuHsjLrfEZVzhpxKE1-148" target="qBRuHsjLrfEZVzhpxKE1-123">
          <mxGeometry relative="1" as="geometry" />
        </mxCell>
        <mxCell id="qBRuHsjLrfEZVzhpxKE1-147" style="edgeStyle=orthogonalEdgeStyle;sketch=1;hachureGap=4;jiggle=2;curveFitting=1;html=1;exitX=0.5;exitY=1;exitDx=0;exitDy=0;entryX=0.5;entryY=0;entryDx=0;entryDy=0;strokeColor=#FFFFFF;fontFamily=Architects Daughter;fontSource=https%3A%2F%2Ffonts.googleapis.com%2Fcss%3Ffamily%3DArchitects%2BDaughter;fontSize=16;" edge="1" parent="1" source="qBRuHsjLrfEZVzhpxKE1-148" target="qBRuHsjLrfEZVzhpxKE1-143">
          <mxGeometry relative="1" as="geometry" />
        </mxCell>
        <mxCell id="qBRuHsjLrfEZVzhpxKE1-148" value="mid data" style="rounded=1;whiteSpace=wrap;html=1;sketch=1;hachureGap=4;jiggle=2;curveFitting=1;strokeColor=#FF0000;fontFamily=Architects Daughter;fontSource=https%3A%2F%2Ffonts.googleapis.com%2Fcss%3Ffamily%3DArchitects%2BDaughter;fontSize=20;" vertex="1" parent="1">
          <mxGeometry x="1900" y="1140" width="120" height="60" as="geometry" />
        </mxCell>
        <mxCell id="qBRuHsjLrfEZVzhpxKE1-149" value="run alpha" style="swimlane;whiteSpace=wrap;html=1;rounded=1;sketch=1;hachureGap=4;jiggle=2;curveFitting=1;strokeColor=#FFFF00;fontFamily=Architects Daughter;fontSource=https%3A%2F%2Ffonts.googleapis.com%2Fcss%3Ffamily%3DArchitects%2BDaughter;fontSize=20;" vertex="1" parent="1">
          <mxGeometry x="1770" y="-280" width="380" height="490" as="geometry" />
        </mxCell>
        <mxCell id="qBRuHsjLrfEZVzhpxKE1-150" value="" style="edgeStyle=none;sketch=1;hachureGap=4;jiggle=2;curveFitting=1;html=1;strokeColor=#FFFFFF;fontFamily=Architects Daughter;fontSource=https%3A%2F%2Ffonts.googleapis.com%2Fcss%3Ffamily%3DArchitects%2BDaughter;fontSize=16;endArrow=classic;endFill=1;" edge="1" parent="qBRuHsjLrfEZVzhpxKE1-149" source="qBRuHsjLrfEZVzhpxKE1-151" target="qBRuHsjLrfEZVzhpxKE1-153">
          <mxGeometry relative="1" as="geometry" />
        </mxCell>
        <mxCell id="qBRuHsjLrfEZVzhpxKE1-151" value="stop?" style="rhombus;whiteSpace=wrap;html=1;rounded=1;sketch=1;hachureGap=4;jiggle=2;curveFitting=1;strokeColor=#FFFFFF;fontFamily=Architects Daughter;fontSource=https%3A%2F%2Ffonts.googleapis.com%2Fcss%3Ffamily%3DArchitects%2BDaughter;fontSize=20;" vertex="1" parent="qBRuHsjLrfEZVzhpxKE1-149">
          <mxGeometry x="150" y="74" width="80" height="80" as="geometry" />
        </mxCell>
        <mxCell id="qBRuHsjLrfEZVzhpxKE1-152" value="" style="edgeStyle=none;sketch=1;hachureGap=4;jiggle=2;curveFitting=1;html=1;fontFamily=Architects Daughter;fontSource=https%3A%2F%2Ffonts.googleapis.com%2Fcss%3Ffamily%3DArchitects%2BDaughter;fontSize=16;" edge="1" parent="qBRuHsjLrfEZVzhpxKE1-149" source="qBRuHsjLrfEZVzhpxKE1-153" target="qBRuHsjLrfEZVzhpxKE1-154">
          <mxGeometry relative="1" as="geometry" />
        </mxCell>
        <mxCell id="qBRuHsjLrfEZVzhpxKE1-153" value="read data" style="whiteSpace=wrap;html=1;fontSize=20;fontFamily=Architects Daughter;strokeColor=#FFFFFF;rounded=1;sketch=1;hachureGap=4;jiggle=2;curveFitting=1;fontSource=https%3A%2F%2Ffonts.googleapis.com%2Fcss%3Ffamily%3DArchitects%2BDaughter;" vertex="1" parent="qBRuHsjLrfEZVzhpxKE1-149">
          <mxGeometry x="130" y="244" width="120" height="60" as="geometry" />
        </mxCell>
        <mxCell id="qBRuHsjLrfEZVzhpxKE1-154" value="cal d1/d5 ..." style="whiteSpace=wrap;html=1;fontSize=20;fontFamily=Architects Daughter;strokeColor=#FFFFFF;rounded=1;sketch=1;hachureGap=4;jiggle=2;curveFitting=1;fontSource=https%3A%2F%2Ffonts.googleapis.com%2Fcss%3Ffamily%3DArchitects%2BDaughter;" vertex="1" parent="qBRuHsjLrfEZVzhpxKE1-149">
          <mxGeometry x="130" y="384" width="120" height="60" as="geometry" />
        </mxCell>
        <mxCell id="qBRuHsjLrfEZVzhpxKE1-155" style="edgeStyle=none;sketch=1;hachureGap=4;jiggle=2;curveFitting=1;html=1;exitX=0.5;exitY=1;exitDx=0;exitDy=0;strokeColor=#FFFFFF;fontFamily=Architects Daughter;fontSource=https%3A%2F%2Ffonts.googleapis.com%2Fcss%3Ffamily%3DArchitects%2BDaughter;fontSize=16;endArrow=classic;endFill=1;" edge="1" parent="1" source="qBRuHsjLrfEZVzhpxKE1-156" target="qBRuHsjLrfEZVzhpxKE1-158">
          <mxGeometry relative="1" as="geometry" />
        </mxCell>
        <mxCell id="qBRuHsjLrfEZVzhpxKE1-156" value="mid data" style="rounded=1;whiteSpace=wrap;html=1;sketch=1;hachureGap=4;jiggle=2;curveFitting=1;strokeColor=#FF0000;fontFamily=Architects Daughter;fontSource=https%3A%2F%2Ffonts.googleapis.com%2Fcss%3Ffamily%3DArchitects%2BDaughter;fontSize=20;" vertex="1" parent="1">
          <mxGeometry x="2790" y="1150" width="120" height="60" as="geometry" />
        </mxCell>
        <mxCell id="qBRuHsjLrfEZVzhpxKE1-157" style="edgeStyle=none;sketch=1;hachureGap=4;jiggle=2;curveFitting=1;html=1;exitX=1;exitY=0.5;exitDx=0;exitDy=0;entryX=0;entryY=0;entryDx=0;entryDy=190;entryPerimeter=0;strokeColor=#FFFFFF;fontFamily=Architects Daughter;fontSource=https%3A%2F%2Ffonts.googleapis.com%2Fcss%3Ffamily%3DArchitects%2BDaughter;fontSize=16;endArrow=classic;endFill=1;startArrow=classic;startFill=1;" edge="1" parent="1" source="qBRuHsjLrfEZVzhpxKE1-158" target="qBRuHsjLrfEZVzhpxKE1-161">
          <mxGeometry relative="1" as="geometry" />
        </mxCell>
        <mxCell id="qBRuHsjLrfEZVzhpxKE1-158" value="run alpha" style="whiteSpace=wrap;html=1;fontSize=20;fontFamily=Architects Daughter;hachureGap=4;fillStyle=cross-hatch;fontSource=https%3A%2F%2Ffonts.googleapis.com%2Fcss%3Ffamily%3DArchitects%2BDaughter;sketch=1;curveFitting=1;jiggle=2;strokeColor=#FFFF00;" vertex="1" parent="1">
          <mxGeometry x="2790" y="1345" width="120" height="60" as="geometry" />
        </mxCell>
        <mxCell id="qBRuHsjLrfEZVzhpxKE1-159" style="edgeStyle=none;sketch=1;hachureGap=4;jiggle=2;curveFitting=1;html=1;exitX=1;exitY=0.5;exitDx=0;exitDy=0;exitPerimeter=0;entryX=0;entryY=0.5;entryDx=0;entryDy=0;strokeColor=#FFFFFF;fontFamily=Architects Daughter;fontSource=https%3A%2F%2Ffonts.googleapis.com%2Fcss%3Ffamily%3DArchitects%2BDaughter;fontSize=16;endArrow=classic;endFill=1;" edge="1" parent="1" source="qBRuHsjLrfEZVzhpxKE1-126" target="qBRuHsjLrfEZVzhpxKE1-158">
          <mxGeometry relative="1" as="geometry" />
        </mxCell>
        <mxCell id="qBRuHsjLrfEZVzhpxKE1-160" value="" style="group;sketch=1;curveFitting=1;jiggle=2;" vertex="1" connectable="0" parent="1">
          <mxGeometry x="3050" y="1190" width="320" height="350" as="geometry" />
        </mxCell>
        <mxCell id="qBRuHsjLrfEZVzhpxKE1-161" value="" style="shape=card;whiteSpace=wrap;html=1;hachureGap=4;fillStyle=cross-hatch;fontFamily=Architects Daughter;fontSource=https%3A%2F%2Ffonts.googleapis.com%2Fcss%3Ffamily%3DArchitects%2BDaughter;fontSize=20;fillColor=default;sketch=1;curveFitting=1;jiggle=2;" vertex="1" parent="qBRuHsjLrfEZVzhpxKE1-160">
          <mxGeometry width="320" height="350" as="geometry" />
        </mxCell>
        <mxCell id="qBRuHsjLrfEZVzhpxKE1-162" value="" style="verticalLabelPosition=bottom;verticalAlign=top;html=1;shape=mxgraph.basic.patternFillRect;fillStyle=grid;step=5;fillStrokeWidth=0.2;fillStrokeColor=#dddddd;hachureGap=4;fontFamily=Architects Daughter;fontSource=https%3A%2F%2Ffonts.googleapis.com%2Fcss%3Ffamily%3DArchitects%2BDaughter;fontSize=20;fillColor=default;sketch=1;curveFitting=1;jiggle=2;" vertex="1" parent="qBRuHsjLrfEZVzhpxKE1-160">
          <mxGeometry x="25" y="50" width="70" height="70" as="geometry" />
        </mxCell>
        <mxCell id="qBRuHsjLrfEZVzhpxKE1-163" value="" style="verticalLabelPosition=bottom;verticalAlign=top;html=1;shape=mxgraph.basic.patternFillRect;fillStyle=grid;step=5;fillStrokeWidth=0.2;fillStrokeColor=#dddddd;hachureGap=4;fontFamily=Architects Daughter;fontSource=https%3A%2F%2Ffonts.googleapis.com%2Fcss%3Ffamily%3DArchitects%2BDaughter;fontSize=20;fillColor=default;sketch=1;curveFitting=1;jiggle=2;" vertex="1" parent="qBRuHsjLrfEZVzhpxKE1-160">
          <mxGeometry x="125" y="50" width="70" height="70" as="geometry" />
        </mxCell>
        <mxCell id="qBRuHsjLrfEZVzhpxKE1-164" value="" style="verticalLabelPosition=bottom;verticalAlign=top;html=1;shape=mxgraph.basic.patternFillRect;fillStyle=grid;step=5;fillStrokeWidth=0.2;fillStrokeColor=#dddddd;hachureGap=4;fontFamily=Architects Daughter;fontSource=https%3A%2F%2Ffonts.googleapis.com%2Fcss%3Ffamily%3DArchitects%2BDaughter;fontSize=20;fillColor=default;sketch=1;curveFitting=1;jiggle=2;" vertex="1" parent="qBRuHsjLrfEZVzhpxKE1-160">
          <mxGeometry x="215" y="50" width="70" height="70" as="geometry" />
        </mxCell>
        <mxCell id="qBRuHsjLrfEZVzhpxKE1-165" value="" style="verticalLabelPosition=bottom;verticalAlign=top;html=1;shape=mxgraph.basic.patternFillRect;fillStyle=grid;step=5;fillStrokeWidth=0.2;fillStrokeColor=#dddddd;hachureGap=4;fontFamily=Architects Daughter;fontSource=https%3A%2F%2Ffonts.googleapis.com%2Fcss%3Ffamily%3DArchitects%2BDaughter;fontSize=20;fillColor=default;sketch=1;curveFitting=1;jiggle=2;" vertex="1" parent="qBRuHsjLrfEZVzhpxKE1-160">
          <mxGeometry x="25" y="240" width="70" height="70" as="geometry" />
        </mxCell>
        <mxCell id="qBRuHsjLrfEZVzhpxKE1-166" value="" style="verticalLabelPosition=bottom;verticalAlign=top;html=1;shape=mxgraph.basic.patternFillRect;fillStyle=grid;step=5;fillStrokeWidth=0.2;fillStrokeColor=#dddddd;hachureGap=4;fontFamily=Architects Daughter;fontSource=https%3A%2F%2Ffonts.googleapis.com%2Fcss%3Ffamily%3DArchitects%2BDaughter;fontSize=20;fillColor=default;sketch=1;curveFitting=1;jiggle=2;" vertex="1" parent="qBRuHsjLrfEZVzhpxKE1-160">
          <mxGeometry x="125" y="240" width="70" height="70" as="geometry" />
        </mxCell>
        <mxCell id="qBRuHsjLrfEZVzhpxKE1-167" value="" style="verticalLabelPosition=bottom;verticalAlign=top;html=1;shape=mxgraph.basic.patternFillRect;fillStyle=grid;step=5;fillStrokeWidth=0.2;fillStrokeColor=#dddddd;hachureGap=4;fontFamily=Architects Daughter;fontSource=https%3A%2F%2Ffonts.googleapis.com%2Fcss%3Ffamily%3DArchitects%2BDaughter;fontSize=20;fillColor=default;sketch=1;curveFitting=1;jiggle=2;" vertex="1" parent="qBRuHsjLrfEZVzhpxKE1-160">
          <mxGeometry x="215" y="240" width="70" height="70" as="geometry" />
        </mxCell>
        <mxCell id="qBRuHsjLrfEZVzhpxKE1-168" style="edgeStyle=none;hachureGap=4;html=1;exitX=0.25;exitY=0;exitDx=0;exitDy=0;entryX=0.5;entryY=1;entryDx=0;entryDy=0;entryPerimeter=0;fontFamily=Architects Daughter;fontSource=https%3A%2F%2Ffonts.googleapis.com%2Fcss%3Ffamily%3DArchitects%2BDaughter;fontSize=16;sketch=1;curveFitting=1;jiggle=2;" edge="1" parent="qBRuHsjLrfEZVzhpxKE1-160" source="qBRuHsjLrfEZVzhpxKE1-174" target="qBRuHsjLrfEZVzhpxKE1-162">
          <mxGeometry relative="1" as="geometry" />
        </mxCell>
        <mxCell id="qBRuHsjLrfEZVzhpxKE1-169" style="edgeStyle=none;hachureGap=4;html=1;exitX=0.5;exitY=0;exitDx=0;exitDy=0;entryX=0.5;entryY=1;entryDx=0;entryDy=0;entryPerimeter=0;fontFamily=Architects Daughter;fontSource=https%3A%2F%2Ffonts.googleapis.com%2Fcss%3Ffamily%3DArchitects%2BDaughter;fontSize=16;sketch=1;curveFitting=1;jiggle=2;" edge="1" parent="qBRuHsjLrfEZVzhpxKE1-160" source="qBRuHsjLrfEZVzhpxKE1-174" target="qBRuHsjLrfEZVzhpxKE1-163">
          <mxGeometry relative="1" as="geometry" />
        </mxCell>
        <mxCell id="qBRuHsjLrfEZVzhpxKE1-170" style="edgeStyle=none;hachureGap=4;html=1;exitX=0.75;exitY=0;exitDx=0;exitDy=0;entryX=0.75;entryY=1;entryDx=0;entryDy=0;entryPerimeter=0;fontFamily=Architects Daughter;fontSource=https%3A%2F%2Ffonts.googleapis.com%2Fcss%3Ffamily%3DArchitects%2BDaughter;fontSize=16;sketch=1;curveFitting=1;jiggle=2;" edge="1" parent="qBRuHsjLrfEZVzhpxKE1-160" source="qBRuHsjLrfEZVzhpxKE1-174" target="qBRuHsjLrfEZVzhpxKE1-164">
          <mxGeometry relative="1" as="geometry" />
        </mxCell>
        <mxCell id="qBRuHsjLrfEZVzhpxKE1-171" style="edgeStyle=none;hachureGap=4;html=1;exitX=0.25;exitY=1;exitDx=0;exitDy=0;entryX=0.5;entryY=0;entryDx=0;entryDy=0;entryPerimeter=0;fontFamily=Architects Daughter;fontSource=https%3A%2F%2Ffonts.googleapis.com%2Fcss%3Ffamily%3DArchitects%2BDaughter;fontSize=16;sketch=1;curveFitting=1;jiggle=2;" edge="1" parent="qBRuHsjLrfEZVzhpxKE1-160" source="qBRuHsjLrfEZVzhpxKE1-174" target="qBRuHsjLrfEZVzhpxKE1-165">
          <mxGeometry relative="1" as="geometry" />
        </mxCell>
        <mxCell id="qBRuHsjLrfEZVzhpxKE1-172" style="edgeStyle=none;hachureGap=4;html=1;exitX=0.5;exitY=1;exitDx=0;exitDy=0;entryX=0.5;entryY=0;entryDx=0;entryDy=0;entryPerimeter=0;fontFamily=Architects Daughter;fontSource=https%3A%2F%2Ffonts.googleapis.com%2Fcss%3Ffamily%3DArchitects%2BDaughter;fontSize=16;sketch=1;curveFitting=1;jiggle=2;" edge="1" parent="qBRuHsjLrfEZVzhpxKE1-160" source="qBRuHsjLrfEZVzhpxKE1-174" target="qBRuHsjLrfEZVzhpxKE1-166">
          <mxGeometry relative="1" as="geometry" />
        </mxCell>
        <mxCell id="qBRuHsjLrfEZVzhpxKE1-173" style="edgeStyle=none;hachureGap=4;html=1;exitX=0.75;exitY=1;exitDx=0;exitDy=0;entryX=0.5;entryY=0;entryDx=0;entryDy=0;entryPerimeter=0;fontFamily=Architects Daughter;fontSource=https%3A%2F%2Ffonts.googleapis.com%2Fcss%3Ffamily%3DArchitects%2BDaughter;fontSize=16;sketch=1;curveFitting=1;jiggle=2;" edge="1" parent="qBRuHsjLrfEZVzhpxKE1-160" source="qBRuHsjLrfEZVzhpxKE1-174" target="qBRuHsjLrfEZVzhpxKE1-167">
          <mxGeometry relative="1" as="geometry" />
        </mxCell>
        <mxCell id="qBRuHsjLrfEZVzhpxKE1-174" value="STRAT_META" style="rounded=1;whiteSpace=wrap;html=1;hachureGap=4;fillStyle=cross-hatch;fontFamily=Architects Daughter;fontSource=https%3A%2F%2Ffonts.googleapis.com%2Fcss%3Ffamily%3DArchitects%2BDaughter;fontSize=20;fillColor=default;sketch=1;curveFitting=1;jiggle=2;" vertex="1" parent="qBRuHsjLrfEZVzhpxKE1-160">
          <mxGeometry x="55" y="145" width="217.5" height="60" as="geometry" />
        </mxCell>
        <mxCell id="qBRuHsjLrfEZVzhpxKE1-175" value="d5 sampled HFDA" style="text;html=1;strokeColor=none;fillColor=none;align=center;verticalAlign=middle;whiteSpace=wrap;rounded=0;hachureGap=4;fillStyle=cross-hatch;fontFamily=Architects Daughter;fontSource=https%3A%2F%2Ffonts.googleapis.com%2Fcss%3Ffamily%3DArchitects%2BDaughter;fontSize=20;sketch=1;curveFitting=1;jiggle=2;" vertex="1" parent="qBRuHsjLrfEZVzhpxKE1-160">
          <mxGeometry x="71.25" y="10" width="185" height="30" as="geometry" />
        </mxCell>
        <mxCell id="qBRuHsjLrfEZVzhpxKE1-176" style="edgeStyle=none;sketch=1;hachureGap=4;jiggle=2;curveFitting=1;html=1;exitX=0.5;exitY=1;exitDx=0;exitDy=0;strokeColor=#FFFFFF;fontFamily=Architects Daughter;fontSource=https%3A%2F%2Ffonts.googleapis.com%2Fcss%3Ffamily%3DArchitects%2BDaughter;fontSize=16;startArrow=none;startFill=0;endArrow=classic;endFill=1;" edge="1" parent="1" source="qBRuHsjLrfEZVzhpxKE1-177" target="qBRuHsjLrfEZVzhpxKE1-179">
          <mxGeometry relative="1" as="geometry" />
        </mxCell>
        <mxCell id="qBRuHsjLrfEZVzhpxKE1-177" value="mid data" style="rounded=1;whiteSpace=wrap;html=1;sketch=1;hachureGap=4;jiggle=2;curveFitting=1;strokeColor=#FF0000;fontFamily=Architects Daughter;fontSource=https%3A%2F%2Ffonts.googleapis.com%2Fcss%3Ffamily%3DArchitects%2BDaughter;fontSize=20;" vertex="1" parent="1">
          <mxGeometry x="3560" y="1150" width="120" height="60" as="geometry" />
        </mxCell>
        <mxCell id="qBRuHsjLrfEZVzhpxKE1-178" style="edgeStyle=none;sketch=1;hachureGap=4;jiggle=2;curveFitting=1;html=1;exitX=1;exitY=0.5;exitDx=0;exitDy=0;entryX=0;entryY=0;entryDx=0;entryDy=190;entryPerimeter=0;strokeColor=#FFFFFF;fontFamily=Architects Daughter;fontSource=https%3A%2F%2Ffonts.googleapis.com%2Fcss%3Ffamily%3DArchitects%2BDaughter;fontSize=16;startArrow=none;startFill=0;endArrow=classic;endFill=1;" edge="1" parent="1" source="qBRuHsjLrfEZVzhpxKE1-179" target="qBRuHsjLrfEZVzhpxKE1-182">
          <mxGeometry relative="1" as="geometry" />
        </mxCell>
        <mxCell id="qBRuHsjLrfEZVzhpxKE1-179" value="run opt" style="whiteSpace=wrap;html=1;fontSize=20;fontFamily=Architects Daughter;hachureGap=4;fillStyle=cross-hatch;fontSource=https%3A%2F%2Ffonts.googleapis.com%2Fcss%3Ffamily%3DArchitects%2BDaughter;sketch=1;curveFitting=1;jiggle=2;strokeColor=#FFFF00;" vertex="1" parent="1">
          <mxGeometry x="3560" y="1335" width="120" height="60" as="geometry" />
        </mxCell>
        <mxCell id="qBRuHsjLrfEZVzhpxKE1-180" style="edgeStyle=none;sketch=1;hachureGap=4;jiggle=2;curveFitting=1;html=1;exitX=1;exitY=0.5;exitDx=0;exitDy=0;exitPerimeter=0;entryX=0;entryY=0.5;entryDx=0;entryDy=0;strokeColor=#FFFFFF;fontFamily=Architects Daughter;fontSource=https%3A%2F%2Ffonts.googleapis.com%2Fcss%3Ffamily%3DArchitects%2BDaughter;fontSize=16;startArrow=none;startFill=0;endArrow=classic;endFill=1;" edge="1" parent="1" source="qBRuHsjLrfEZVzhpxKE1-161" target="qBRuHsjLrfEZVzhpxKE1-179">
          <mxGeometry relative="1" as="geometry" />
        </mxCell>
        <mxCell id="qBRuHsjLrfEZVzhpxKE1-181" value="" style="group;sketch=1;curveFitting=1;jiggle=2;" vertex="1" connectable="0" parent="1">
          <mxGeometry x="3800" y="1180" width="320" height="350" as="geometry" />
        </mxCell>
        <mxCell id="qBRuHsjLrfEZVzhpxKE1-182" value="" style="shape=card;whiteSpace=wrap;html=1;hachureGap=4;fillStyle=cross-hatch;fontFamily=Architects Daughter;fontSource=https%3A%2F%2Ffonts.googleapis.com%2Fcss%3Ffamily%3DArchitects%2BDaughter;fontSize=20;fillColor=default;sketch=1;curveFitting=1;jiggle=2;" vertex="1" parent="qBRuHsjLrfEZVzhpxKE1-181">
          <mxGeometry width="320" height="350" as="geometry" />
        </mxCell>
        <mxCell id="qBRuHsjLrfEZVzhpxKE1-183" value="" style="verticalLabelPosition=bottom;verticalAlign=top;html=1;shape=mxgraph.basic.patternFillRect;fillStyle=grid;step=5;fillStrokeWidth=0.2;fillStrokeColor=#dddddd;hachureGap=4;fontFamily=Architects Daughter;fontSource=https%3A%2F%2Ffonts.googleapis.com%2Fcss%3Ffamily%3DArchitects%2BDaughter;fontSize=20;fillColor=default;sketch=1;curveFitting=1;jiggle=2;" vertex="1" parent="qBRuHsjLrfEZVzhpxKE1-181">
          <mxGeometry x="25" y="50" width="70" height="70" as="geometry" />
        </mxCell>
        <mxCell id="qBRuHsjLrfEZVzhpxKE1-184" value="" style="verticalLabelPosition=bottom;verticalAlign=top;html=1;shape=mxgraph.basic.patternFillRect;fillStyle=grid;step=5;fillStrokeWidth=0.2;fillStrokeColor=#dddddd;hachureGap=4;fontFamily=Architects Daughter;fontSource=https%3A%2F%2Ffonts.googleapis.com%2Fcss%3Ffamily%3DArchitects%2BDaughter;fontSize=20;fillColor=default;sketch=1;curveFitting=1;jiggle=2;" vertex="1" parent="qBRuHsjLrfEZVzhpxKE1-181">
          <mxGeometry x="125" y="50" width="70" height="70" as="geometry" />
        </mxCell>
        <mxCell id="qBRuHsjLrfEZVzhpxKE1-185" value="" style="verticalLabelPosition=bottom;verticalAlign=top;html=1;shape=mxgraph.basic.patternFillRect;fillStyle=grid;step=5;fillStrokeWidth=0.2;fillStrokeColor=#dddddd;hachureGap=4;fontFamily=Architects Daughter;fontSource=https%3A%2F%2Ffonts.googleapis.com%2Fcss%3Ffamily%3DArchitects%2BDaughter;fontSize=20;fillColor=default;sketch=1;curveFitting=1;jiggle=2;" vertex="1" parent="qBRuHsjLrfEZVzhpxKE1-181">
          <mxGeometry x="215" y="50" width="70" height="70" as="geometry" />
        </mxCell>
        <mxCell id="qBRuHsjLrfEZVzhpxKE1-186" value="" style="verticalLabelPosition=bottom;verticalAlign=top;html=1;shape=mxgraph.basic.patternFillRect;fillStyle=grid;step=5;fillStrokeWidth=0.2;fillStrokeColor=#dddddd;hachureGap=4;fontFamily=Architects Daughter;fontSource=https%3A%2F%2Ffonts.googleapis.com%2Fcss%3Ffamily%3DArchitects%2BDaughter;fontSize=20;fillColor=default;sketch=1;curveFitting=1;jiggle=2;" vertex="1" parent="qBRuHsjLrfEZVzhpxKE1-181">
          <mxGeometry x="25" y="240" width="70" height="70" as="geometry" />
        </mxCell>
        <mxCell id="qBRuHsjLrfEZVzhpxKE1-187" value="" style="verticalLabelPosition=bottom;verticalAlign=top;html=1;shape=mxgraph.basic.patternFillRect;fillStyle=grid;step=5;fillStrokeWidth=0.2;fillStrokeColor=#dddddd;hachureGap=4;fontFamily=Architects Daughter;fontSource=https%3A%2F%2Ffonts.googleapis.com%2Fcss%3Ffamily%3DArchitects%2BDaughter;fontSize=20;fillColor=default;sketch=1;curveFitting=1;jiggle=2;" vertex="1" parent="qBRuHsjLrfEZVzhpxKE1-181">
          <mxGeometry x="125" y="240" width="70" height="70" as="geometry" />
        </mxCell>
        <mxCell id="qBRuHsjLrfEZVzhpxKE1-188" value="" style="verticalLabelPosition=bottom;verticalAlign=top;html=1;shape=mxgraph.basic.patternFillRect;fillStyle=grid;step=5;fillStrokeWidth=0.2;fillStrokeColor=#dddddd;hachureGap=4;fontFamily=Architects Daughter;fontSource=https%3A%2F%2Ffonts.googleapis.com%2Fcss%3Ffamily%3DArchitects%2BDaughter;fontSize=20;fillColor=default;sketch=1;curveFitting=1;jiggle=2;" vertex="1" parent="qBRuHsjLrfEZVzhpxKE1-181">
          <mxGeometry x="215" y="240" width="70" height="70" as="geometry" />
        </mxCell>
        <mxCell id="qBRuHsjLrfEZVzhpxKE1-189" style="edgeStyle=none;hachureGap=4;html=1;exitX=0.25;exitY=0;exitDx=0;exitDy=0;entryX=0.5;entryY=1;entryDx=0;entryDy=0;entryPerimeter=0;fontFamily=Architects Daughter;fontSource=https%3A%2F%2Ffonts.googleapis.com%2Fcss%3Ffamily%3DArchitects%2BDaughter;fontSize=16;sketch=1;curveFitting=1;jiggle=2;" edge="1" parent="qBRuHsjLrfEZVzhpxKE1-181" source="qBRuHsjLrfEZVzhpxKE1-195" target="qBRuHsjLrfEZVzhpxKE1-183">
          <mxGeometry relative="1" as="geometry" />
        </mxCell>
        <mxCell id="qBRuHsjLrfEZVzhpxKE1-190" style="edgeStyle=none;hachureGap=4;html=1;exitX=0.5;exitY=0;exitDx=0;exitDy=0;entryX=0.5;entryY=1;entryDx=0;entryDy=0;entryPerimeter=0;fontFamily=Architects Daughter;fontSource=https%3A%2F%2Ffonts.googleapis.com%2Fcss%3Ffamily%3DArchitects%2BDaughter;fontSize=16;sketch=1;curveFitting=1;jiggle=2;" edge="1" parent="qBRuHsjLrfEZVzhpxKE1-181" source="qBRuHsjLrfEZVzhpxKE1-195" target="qBRuHsjLrfEZVzhpxKE1-184">
          <mxGeometry relative="1" as="geometry" />
        </mxCell>
        <mxCell id="qBRuHsjLrfEZVzhpxKE1-191" style="edgeStyle=none;hachureGap=4;html=1;exitX=0.75;exitY=0;exitDx=0;exitDy=0;entryX=0.75;entryY=1;entryDx=0;entryDy=0;entryPerimeter=0;fontFamily=Architects Daughter;fontSource=https%3A%2F%2Ffonts.googleapis.com%2Fcss%3Ffamily%3DArchitects%2BDaughter;fontSize=16;sketch=1;curveFitting=1;jiggle=2;" edge="1" parent="qBRuHsjLrfEZVzhpxKE1-181" source="qBRuHsjLrfEZVzhpxKE1-195" target="qBRuHsjLrfEZVzhpxKE1-185">
          <mxGeometry relative="1" as="geometry" />
        </mxCell>
        <mxCell id="qBRuHsjLrfEZVzhpxKE1-192" style="edgeStyle=none;hachureGap=4;html=1;exitX=0.25;exitY=1;exitDx=0;exitDy=0;entryX=0.5;entryY=0;entryDx=0;entryDy=0;entryPerimeter=0;fontFamily=Architects Daughter;fontSource=https%3A%2F%2Ffonts.googleapis.com%2Fcss%3Ffamily%3DArchitects%2BDaughter;fontSize=16;sketch=1;curveFitting=1;jiggle=2;" edge="1" parent="qBRuHsjLrfEZVzhpxKE1-181" source="qBRuHsjLrfEZVzhpxKE1-195" target="qBRuHsjLrfEZVzhpxKE1-186">
          <mxGeometry relative="1" as="geometry" />
        </mxCell>
        <mxCell id="qBRuHsjLrfEZVzhpxKE1-193" style="edgeStyle=none;hachureGap=4;html=1;exitX=0.5;exitY=1;exitDx=0;exitDy=0;entryX=0.5;entryY=0;entryDx=0;entryDy=0;entryPerimeter=0;fontFamily=Architects Daughter;fontSource=https%3A%2F%2Ffonts.googleapis.com%2Fcss%3Ffamily%3DArchitects%2BDaughter;fontSize=16;sketch=1;curveFitting=1;jiggle=2;" edge="1" parent="qBRuHsjLrfEZVzhpxKE1-181" source="qBRuHsjLrfEZVzhpxKE1-195" target="qBRuHsjLrfEZVzhpxKE1-187">
          <mxGeometry relative="1" as="geometry" />
        </mxCell>
        <mxCell id="qBRuHsjLrfEZVzhpxKE1-194" style="edgeStyle=none;hachureGap=4;html=1;exitX=0.75;exitY=1;exitDx=0;exitDy=0;entryX=0.5;entryY=0;entryDx=0;entryDy=0;entryPerimeter=0;fontFamily=Architects Daughter;fontSource=https%3A%2F%2Ffonts.googleapis.com%2Fcss%3Ffamily%3DArchitects%2BDaughter;fontSize=16;sketch=1;curveFitting=1;jiggle=2;" edge="1" parent="qBRuHsjLrfEZVzhpxKE1-181" source="qBRuHsjLrfEZVzhpxKE1-195" target="qBRuHsjLrfEZVzhpxKE1-188">
          <mxGeometry relative="1" as="geometry" />
        </mxCell>
        <mxCell id="qBRuHsjLrfEZVzhpxKE1-195" value="POS_META" style="rounded=1;whiteSpace=wrap;html=1;hachureGap=4;fillStyle=cross-hatch;fontFamily=Architects Daughter;fontSource=https%3A%2F%2Ffonts.googleapis.com%2Fcss%3Ffamily%3DArchitects%2BDaughter;fontSize=20;fillColor=default;sketch=1;curveFitting=1;jiggle=2;" vertex="1" parent="qBRuHsjLrfEZVzhpxKE1-181">
          <mxGeometry x="55" y="145" width="217.5" height="60" as="geometry" />
        </mxCell>
        <mxCell id="qBRuHsjLrfEZVzhpxKE1-196" value="d5 sampled HFDA" style="text;html=1;strokeColor=none;fillColor=none;align=center;verticalAlign=middle;whiteSpace=wrap;rounded=0;hachureGap=4;fillStyle=cross-hatch;fontFamily=Architects Daughter;fontSource=https%3A%2F%2Ffonts.googleapis.com%2Fcss%3Ffamily%3DArchitects%2BDaughter;fontSize=20;sketch=1;curveFitting=1;jiggle=2;" vertex="1" parent="qBRuHsjLrfEZVzhpxKE1-181">
          <mxGeometry x="71.25" y="10" width="185" height="30" as="geometry" />
        </mxCell>
        <mxCell id="qBRuHsjLrfEZVzhpxKE1-197" style="edgeStyle=none;sketch=1;hachureGap=4;jiggle=2;curveFitting=1;html=1;exitX=1;exitY=0.5;exitDx=0;exitDy=0;exitPerimeter=0;strokeColor=#FFFFFF;fontFamily=Architects Daughter;fontSource=https%3A%2F%2Ffonts.googleapis.com%2Fcss%3Ffamily%3DArchitects%2BDaughter;fontSize=16;startArrow=none;startFill=0;endArrow=classic;endFill=1;" edge="1" parent="1" source="qBRuHsjLrfEZVzhpxKE1-182">
          <mxGeometry relative="1" as="geometry">
            <mxPoint x="4320" y="1355.8888888888887" as="targetPoint" />
          </mxGeometry>
        </mxCell>
        <mxCell id="qBRuHsjLrfEZVzhpxKE1-198" value="smart algo" style="whiteSpace=wrap;html=1;fontSize=20;fontFamily=Architects Daughter;hachureGap=4;fillStyle=cross-hatch;fontSource=https%3A%2F%2Ffonts.googleapis.com%2Fcss%3Ffamily%3DArchitects%2BDaughter;sketch=1;curveFitting=1;jiggle=2;strokeColor=#FFFF00;" vertex="1" parent="1">
          <mxGeometry x="4320" y="1325" width="120" height="60" as="geometry" />
        </mxCell>
        <mxCell id="qBRuHsjLrfEZVzhpxKE1-199" value="" style="endArrow=none;html=1;sketch=1;hachureGap=4;jiggle=2;curveFitting=1;strokeColor=#FFFFFF;fontFamily=Architects Daughter;fontSource=https%3A%2F%2Ffonts.googleapis.com%2Fcss%3Ffamily%3DArchitects%2BDaughter;fontSize=16;" edge="1" parent="1">
          <mxGeometry width="50" height="50" relative="1" as="geometry">
            <mxPoint x="-230" y="2250" as="sourcePoint" />
            <mxPoint x="4590" y="2240" as="targetPoint" />
          </mxGeometry>
        </mxCell>
        <mxCell id="qBRuHsjLrfEZVzhpxKE1-200" value="" style="sketch=1;hachureGap=4;jiggle=2;curveFitting=1;html=1;strokeColor=#FFFFFF;fontFamily=Architects Daughter;fontSource=https%3A%2F%2Ffonts.googleapis.com%2Fcss%3Ffamily%3DArchitects%2BDaughter;fontSize=16;startArrow=none;startFill=0;endArrow=classic;endFill=1;" edge="1" parent="1" source="qBRuHsjLrfEZVzhpxKE1-201" target="qBRuHsjLrfEZVzhpxKE1-204">
          <mxGeometry relative="1" as="geometry" />
        </mxCell>
        <mxCell id="qBRuHsjLrfEZVzhpxKE1-201" value="H5 data" style="rounded=1;whiteSpace=wrap;html=1;sketch=1;hachureGap=4;jiggle=2;curveFitting=1;strokeColor=#FFFFFF;fontFamily=Architects Daughter;fontSource=https%3A%2F%2Ffonts.googleapis.com%2Fcss%3Ffamily%3DArchitects%2BDaughter;fontSize=20;" vertex="1" parent="1">
          <mxGeometry x="80" y="2380" width="120" height="60" as="geometry" />
        </mxCell>
        <mxCell id="qBRuHsjLrfEZVzhpxKE1-202" style="edgeStyle=orthogonalEdgeStyle;sketch=1;hachureGap=4;jiggle=2;curveFitting=1;html=1;entryX=0;entryY=0.5;entryDx=0;entryDy=0;strokeColor=#FFFFFF;fontFamily=Architects Daughter;fontSource=https%3A%2F%2Ffonts.googleapis.com%2Fcss%3Ffamily%3DArchitects%2BDaughter;fontSize=16;startArrow=none;startFill=0;endArrow=classic;endFill=1;exitX=0.5;exitY=1;exitDx=0;exitDy=0;exitPerimeter=0;dashed=1;dashPattern=12 12;" edge="1" parent="1" source="qBRuHsjLrfEZVzhpxKE1-12" target="qBRuHsjLrfEZVzhpxKE1-201">
          <mxGeometry relative="1" as="geometry">
            <Array as="points">
              <mxPoint x="1241" y="1210" />
              <mxPoint x="-340" y="1210" />
              <mxPoint x="-340" y="2410" />
            </Array>
          </mxGeometry>
        </mxCell>
        <mxCell id="qBRuHsjLrfEZVzhpxKE1-203" value="" style="sketch=1;hachureGap=4;jiggle=2;curveFitting=1;html=1;strokeColor=#FFFFFF;fontFamily=Architects Daughter;fontSource=https%3A%2F%2Ffonts.googleapis.com%2Fcss%3Ffamily%3DArchitects%2BDaughter;fontSize=16;startArrow=none;startFill=0;endArrow=classic;endFill=1;" edge="1" parent="1" source="qBRuHsjLrfEZVzhpxKE1-204" target="qBRuHsjLrfEZVzhpxKE1-207">
          <mxGeometry relative="1" as="geometry" />
        </mxCell>
        <mxCell id="qBRuHsjLrfEZVzhpxKE1-204" value="bin data" style="rounded=1;whiteSpace=wrap;html=1;sketch=1;hachureGap=4;jiggle=2;curveFitting=1;strokeColor=#FFFFFF;fontFamily=Architects Daughter;fontSource=https%3A%2F%2Ffonts.googleapis.com%2Fcss%3Ffamily%3DArchitects%2BDaughter;fontSize=20;" vertex="1" parent="1">
          <mxGeometry x="590" y="2380" width="120" height="60" as="geometry" />
        </mxCell>
        <mxCell id="qBRuHsjLrfEZVzhpxKE1-205" value="" style="edgeStyle=orthogonalEdgeStyle;sketch=1;hachureGap=4;jiggle=2;curveFitting=1;html=1;strokeColor=#FFFFFF;fontFamily=Architects Daughter;fontSource=https%3A%2F%2Ffonts.googleapis.com%2Fcss%3Ffamily%3DArchitects%2BDaughter;fontSize=16;startArrow=none;startFill=0;endArrow=classic;endFill=1;" edge="1" parent="1" source="qBRuHsjLrfEZVzhpxKE1-207" target="qBRuHsjLrfEZVzhpxKE1-209">
          <mxGeometry relative="1" as="geometry" />
        </mxCell>
        <mxCell id="qBRuHsjLrfEZVzhpxKE1-206" style="edgeStyle=orthogonalEdgeStyle;sketch=1;hachureGap=4;jiggle=2;curveFitting=1;html=1;exitX=1;exitY=0.25;exitDx=0;exitDy=0;entryX=0;entryY=0.5;entryDx=0;entryDy=0;dashed=1;dashPattern=8 8;strokeColor=#FFFFFF;fontFamily=Architects Daughter;fontSource=https%3A%2F%2Ffonts.googleapis.com%2Fcss%3Ffamily%3DArchitects%2BDaughter;fontSize=16;startArrow=none;startFill=0;endArrow=classic;endFill=1;" edge="1" parent="1" source="qBRuHsjLrfEZVzhpxKE1-207" target="qBRuHsjLrfEZVzhpxKE1-148">
          <mxGeometry relative="1" as="geometry" />
        </mxCell>
        <mxCell id="qBRuHsjLrfEZVzhpxKE1-207" value="his alpha trade" style="rounded=1;whiteSpace=wrap;html=1;sketch=1;hachureGap=4;jiggle=2;curveFitting=1;strokeColor=#FFFFFF;fontFamily=Architects Daughter;fontSource=https%3A%2F%2Ffonts.googleapis.com%2Fcss%3Ffamily%3DArchitects%2BDaughter;fontSize=20;" vertex="1" parent="1">
          <mxGeometry x="1040" y="2370" width="510" height="70" as="geometry" />
        </mxCell>
        <mxCell id="qBRuHsjLrfEZVzhpxKE1-208" value="" style="sketch=1;hachureGap=4;jiggle=2;curveFitting=1;html=1;strokeColor=#FFFFFF;fontFamily=Architects Daughter;fontSource=https%3A%2F%2Ffonts.googleapis.com%2Fcss%3Ffamily%3DArchitects%2BDaughter;fontSize=16;startArrow=none;startFill=0;endArrow=classic;endFill=1;" edge="1" parent="1" source="qBRuHsjLrfEZVzhpxKE1-209" target="qBRuHsjLrfEZVzhpxKE1-214">
          <mxGeometry relative="1" as="geometry" />
        </mxCell>
        <mxCell id="qBRuHsjLrfEZVzhpxKE1-209" value="check alpha" style="whiteSpace=wrap;html=1;fontSize=20;fontFamily=Architects Daughter;strokeColor=#FFFFFF;rounded=1;sketch=1;hachureGap=4;jiggle=2;curveFitting=1;fontSource=https%3A%2F%2Ffonts.googleapis.com%2Fcss%3Ffamily%3DArchitects%2BDaughter;" vertex="1" parent="1">
          <mxGeometry x="1825" y="2375" width="120" height="60" as="geometry" />
        </mxCell>
        <mxCell id="qBRuHsjLrfEZVzhpxKE1-210" style="edgeStyle=orthogonalEdgeStyle;sketch=1;hachureGap=4;jiggle=2;curveFitting=1;html=1;exitX=0.753;exitY=1.003;exitDx=0;exitDy=0;exitPerimeter=0;entryX=0.75;entryY=0;entryDx=0;entryDy=0;strokeColor=#FFFFFF;fontFamily=Architects Daughter;fontSource=https%3A%2F%2Ffonts.googleapis.com%2Fcss%3Ffamily%3DArchitects%2BDaughter;fontSize=16;startArrow=none;startFill=0;endArrow=classic;endFill=1;dashed=1;dashPattern=8 8;" edge="1" parent="1" source="qBRuHsjLrfEZVzhpxKE1-126" target="qBRuHsjLrfEZVzhpxKE1-209">
          <mxGeometry relative="1" as="geometry">
            <Array as="points">
              <mxPoint x="2461" y="2110" />
              <mxPoint x="1915" y="2110" />
            </Array>
          </mxGeometry>
        </mxCell>
        <mxCell id="qBRuHsjLrfEZVzhpxKE1-211" value="dump" style="edgeLabel;html=1;align=center;verticalAlign=middle;resizable=0;points=[];fontSize=20;fontFamily=Architects Daughter;" vertex="1" connectable="0" parent="qBRuHsjLrfEZVzhpxKE1-210">
          <mxGeometry x="0.0287" y="7" relative="1" as="geometry">
            <mxPoint x="-1" as="offset" />
          </mxGeometry>
        </mxCell>
        <mxCell id="qBRuHsjLrfEZVzhpxKE1-212" style="edgeStyle=none;sketch=1;hachureGap=4;jiggle=2;curveFitting=1;html=1;exitX=1;exitY=0.5;exitDx=0;exitDy=0;entryX=0;entryY=0.5;entryDx=0;entryDy=0;strokeColor=#FFFFFF;fontFamily=Architects Daughter;fontSource=https%3A%2F%2Ffonts.googleapis.com%2Fcss%3Ffamily%3DArchitects%2BDaughter;fontSize=16;startArrow=none;startFill=0;endArrow=classic;endFill=1;" edge="1" parent="1" source="qBRuHsjLrfEZVzhpxKE1-214" target="qBRuHsjLrfEZVzhpxKE1-216">
          <mxGeometry relative="1" as="geometry" />
        </mxCell>
        <mxCell id="qBRuHsjLrfEZVzhpxKE1-213" style="edgeStyle=orthogonalEdgeStyle;sketch=1;hachureGap=4;jiggle=2;curveFitting=1;html=1;exitX=1;exitY=0.25;exitDx=0;exitDy=0;entryX=0.5;entryY=1;entryDx=0;entryDy=0;dashed=1;dashPattern=8 8;strokeColor=#FFFFFF;fontFamily=Architects Daughter;fontSource=https%3A%2F%2Ffonts.googleapis.com%2Fcss%3Ffamily%3DArchitects%2BDaughter;fontSize=16;startArrow=none;startFill=0;endArrow=classic;endFill=1;" edge="1" parent="1" source="qBRuHsjLrfEZVzhpxKE1-214" target="qBRuHsjLrfEZVzhpxKE1-158">
          <mxGeometry relative="1" as="geometry">
            <Array as="points">
              <mxPoint x="2630" y="2390" />
              <mxPoint x="2630" y="1840" />
              <mxPoint x="2850" y="1840" />
            </Array>
          </mxGeometry>
        </mxCell>
        <mxCell id="qBRuHsjLrfEZVzhpxKE1-214" value="his strat trade" style="whiteSpace=wrap;html=1;fontSize=20;fontFamily=Architects Daughter;strokeColor=#FFFFFF;rounded=1;sketch=1;hachureGap=4;jiggle=2;curveFitting=1;fontSource=https%3A%2F%2Ffonts.googleapis.com%2Fcss%3Ffamily%3DArchitects%2BDaughter;" vertex="1" parent="1">
          <mxGeometry x="2160" y="2375" width="405" height="60" as="geometry" />
        </mxCell>
        <mxCell id="qBRuHsjLrfEZVzhpxKE1-215" value="" style="edgeStyle=none;sketch=1;hachureGap=4;jiggle=2;curveFitting=1;html=1;strokeColor=#FFFFFF;fontFamily=Architects Daughter;fontSource=https%3A%2F%2Ffonts.googleapis.com%2Fcss%3Ffamily%3DArchitects%2BDaughter;fontSize=16;startArrow=none;startFill=0;endArrow=classic;endFill=1;" edge="1" parent="1" source="qBRuHsjLrfEZVzhpxKE1-216" target="qBRuHsjLrfEZVzhpxKE1-218">
          <mxGeometry relative="1" as="geometry" />
        </mxCell>
        <mxCell id="qBRuHsjLrfEZVzhpxKE1-216" value="check strat" style="whiteSpace=wrap;html=1;fontSize=20;fontFamily=Architects Daughter;strokeColor=#FFFFFF;rounded=1;sketch=1;hachureGap=4;jiggle=2;curveFitting=1;fontSource=https%3A%2F%2Ffonts.googleapis.com%2Fcss%3Ffamily%3DArchitects%2BDaughter;" vertex="1" parent="1">
          <mxGeometry x="2700" y="2375" width="120" height="60" as="geometry" />
        </mxCell>
        <mxCell id="qBRuHsjLrfEZVzhpxKE1-217" value="" style="edgeStyle=none;sketch=1;hachureGap=4;jiggle=2;curveFitting=1;html=1;strokeColor=#FFFFFF;fontFamily=Architects Daughter;fontSource=https%3A%2F%2Ffonts.googleapis.com%2Fcss%3Ffamily%3DArchitects%2BDaughter;fontSize=16;startArrow=none;startFill=0;endArrow=classic;endFill=1;" edge="1" parent="1" source="qBRuHsjLrfEZVzhpxKE1-218" target="qBRuHsjLrfEZVzhpxKE1-221">
          <mxGeometry relative="1" as="geometry" />
        </mxCell>
        <mxCell id="qBRuHsjLrfEZVzhpxKE1-218" value="his optimizer" style="whiteSpace=wrap;html=1;fontSize=20;fontFamily=Architects Daughter;strokeColor=#FFFFFF;rounded=1;sketch=1;hachureGap=4;jiggle=2;curveFitting=1;fontSource=https%3A%2F%2Ffonts.googleapis.com%2Fcss%3Ffamily%3DArchitects%2BDaughter;" vertex="1" parent="1">
          <mxGeometry x="2900" y="2375" width="250" height="60" as="geometry" />
        </mxCell>
        <mxCell id="qBRuHsjLrfEZVzhpxKE1-219" value="" style="edgeStyle=none;sketch=1;hachureGap=4;jiggle=2;curveFitting=1;html=1;strokeColor=#FFFFFF;fontFamily=Architects Daughter;fontSource=https%3A%2F%2Ffonts.googleapis.com%2Fcss%3Ffamily%3DArchitects%2BDaughter;fontSize=16;startArrow=none;startFill=0;endArrow=classic;endFill=1;" edge="1" parent="1" source="qBRuHsjLrfEZVzhpxKE1-221" target="qBRuHsjLrfEZVzhpxKE1-222">
          <mxGeometry relative="1" as="geometry" />
        </mxCell>
        <mxCell id="qBRuHsjLrfEZVzhpxKE1-220" style="edgeStyle=orthogonalEdgeStyle;sketch=1;hachureGap=4;jiggle=2;curveFitting=1;html=1;exitX=0.25;exitY=0;exitDx=0;exitDy=0;entryX=0.5;entryY=1;entryDx=0;entryDy=0;dashed=1;dashPattern=8 8;strokeColor=#FFFFFF;fontFamily=Architects Daughter;fontSource=https%3A%2F%2Ffonts.googleapis.com%2Fcss%3Ffamily%3DArchitects%2BDaughter;fontSize=16;startArrow=none;startFill=0;endArrow=classic;endFill=1;" edge="1" parent="1" source="qBRuHsjLrfEZVzhpxKE1-221" target="qBRuHsjLrfEZVzhpxKE1-179">
          <mxGeometry relative="1" as="geometry" />
        </mxCell>
        <mxCell id="qBRuHsjLrfEZVzhpxKE1-221" value="check pos" style="whiteSpace=wrap;html=1;fontSize=20;fontFamily=Architects Daughter;strokeColor=#FFFFFF;rounded=1;sketch=1;hachureGap=4;jiggle=2;curveFitting=1;fontSource=https%3A%2F%2Ffonts.googleapis.com%2Fcss%3Ffamily%3DArchitects%2BDaughter;" vertex="1" parent="1">
          <mxGeometry x="3230" y="2375" width="180" height="60" as="geometry" />
        </mxCell>
        <mxCell id="qBRuHsjLrfEZVzhpxKE1-222" value="run sim" style="whiteSpace=wrap;html=1;fontSize=20;fontFamily=Architects Daughter;strokeColor=#FFFFFF;rounded=1;sketch=1;hachureGap=4;jiggle=2;curveFitting=1;fontSource=https%3A%2F%2Ffonts.googleapis.com%2Fcss%3Ffamily%3DArchitects%2BDaughter;" vertex="1" parent="1">
          <mxGeometry x="3560" y="2375" width="130" height="60" as="geometry" />
        </mxCell>
        <mxCell id="qBRuHsjLrfEZVzhpxKE1-223" style="edgeStyle=orthogonalEdgeStyle;sketch=1;hachureGap=4;jiggle=2;curveFitting=1;html=1;exitX=0.5;exitY=1;exitDx=0;exitDy=0;exitPerimeter=0;entryX=0.5;entryY=0;entryDx=0;entryDy=0;strokeColor=#FFFFFF;fontFamily=Architects Daughter;fontSource=https%3A%2F%2Ffonts.googleapis.com%2Fcss%3Ffamily%3DArchitects%2BDaughter;fontSize=16;startArrow=none;startFill=0;endArrow=classic;endFill=1;dashed=1;dashPattern=8 8;" edge="1" parent="1" source="qBRuHsjLrfEZVzhpxKE1-161" target="qBRuHsjLrfEZVzhpxKE1-216">
          <mxGeometry relative="1" as="geometry" />
        </mxCell>
        <mxCell id="qBRuHsjLrfEZVzhpxKE1-224" style="edgeStyle=orthogonalEdgeStyle;sketch=1;hachureGap=4;jiggle=2;curveFitting=1;html=1;exitX=0.5;exitY=1;exitDx=0;exitDy=0;exitPerimeter=0;entryX=0.75;entryY=0;entryDx=0;entryDy=0;dashed=1;dashPattern=8 8;strokeColor=#FFFFFF;fontFamily=Architects Daughter;fontSource=https%3A%2F%2Ffonts.googleapis.com%2Fcss%3Ffamily%3DArchitects%2BDaughter;fontSize=16;startArrow=none;startFill=0;endArrow=classic;endFill=1;" edge="1" parent="1" source="qBRuHsjLrfEZVzhpxKE1-182" target="qBRuHsjLrfEZVzhpxKE1-221">
          <mxGeometry relative="1" as="geometry" />
        </mxCell>
      </root>
    </mxGraphModel>
  </diagram>
  <diagram id="zTW1LmbcnSyk_mKzaZcT" name="第 2 页">
    <mxGraphModel dx="2901" dy="2309" grid="1" gridSize="10" guides="1" tooltips="1" connect="1" arrows="1" fold="1" page="1" pageScale="1" pageWidth="827" pageHeight="1169" math="0" shadow="0">
      <root>
        <mxCell id="0" />
        <mxCell id="1" parent="0" />
        <mxCell id="A8ja2pDoUAVjySYwNpPa-1" value="ctp_context" style="swimlane;fontStyle=0;childLayout=stackLayout;horizontal=1;startSize=26;fillColor=#f5f5f5;horizontalStack=0;resizeParent=1;resizeParentMax=0;resizeLast=0;collapsible=1;marginBottom=0;whiteSpace=wrap;html=1;strokeColor=#666666;fontColor=#333333;" vertex="1" parent="1">
          <mxGeometry x="-100" y="280" width="340" height="130" as="geometry" />
        </mxCell>
        <mxCell id="A8ja2pDoUAVjySYwNpPa-2" value="_config: XmlElement*" style="text;strokeColor=#6c8ebf;fillColor=#dae8fc;align=left;verticalAlign=top;spacingLeft=4;spacingRight=4;overflow=hidden;rotatable=0;points=[[0,0.5],[1,0.5]];portConstraint=eastwest;whiteSpace=wrap;html=1;" vertex="1" parent="A8ja2pDoUAVjySYwNpPa-1">
          <mxGeometry y="26" width="340" height="26" as="geometry" />
        </mxCell>
        <mxCell id="A8ja2pDoUAVjySYwNpPa-3" value="连接信息、账户信息" style="text;strokeColor=#6c8ebf;fillColor=#dae8fc;align=left;verticalAlign=top;spacingLeft=4;spacingRight=4;overflow=hidden;rotatable=0;points=[[0,0.5],[1,0.5]];portConstraint=eastwest;whiteSpace=wrap;html=1;" vertex="1" parent="A8ja2pDoUAVjySYwNpPa-1">
          <mxGeometry y="52" width="340" height="26" as="geometry" />
        </mxCell>
        <mxCell id="A8ja2pDoUAVjySYwNpPa-4" value="其他次要配置标识" style="text;strokeColor=#6c8ebf;fillColor=#dae8fc;align=left;verticalAlign=top;spacingLeft=4;spacingRight=4;overflow=hidden;rotatable=0;points=[[0,0.5],[1,0.5]];portConstraint=eastwest;whiteSpace=wrap;html=1;" vertex="1" parent="A8ja2pDoUAVjySYwNpPa-1">
          <mxGeometry y="78" width="340" height="26" as="geometry" />
        </mxCell>
        <mxCell id="A8ja2pDoUAVjySYwNpPa-5" value="getters &amp;amp; setters" style="text;strokeColor=#82b366;fillColor=#d5e8d4;align=left;verticalAlign=top;spacingLeft=4;spacingRight=4;overflow=hidden;rotatable=0;points=[[0,0.5],[1,0.5]];portConstraint=eastwest;whiteSpace=wrap;html=1;" vertex="1" parent="A8ja2pDoUAVjySYwNpPa-1">
          <mxGeometry y="104" width="340" height="26" as="geometry" />
        </mxCell>
        <mxCell id="A8ja2pDoUAVjySYwNpPa-6" value="ctp_order" style="swimlane;fontStyle=0;childLayout=stackLayout;horizontal=1;startSize=26;fillColor=#f5f5f5;horizontalStack=0;resizeParent=1;resizeParentMax=0;resizeLast=0;collapsible=1;marginBottom=0;whiteSpace=wrap;html=1;fontColor=#333333;strokeColor=#666666;" vertex="1" parent="1">
          <mxGeometry x="400" y="280" width="340" height="180" as="geometry" />
        </mxCell>
        <mxCell id="A8ja2pDoUAVjySYwNpPa-7" value="_context:&amp;nbsp;ctp_context" style="text;strokeColor=#6c8ebf;fillColor=#dae8fc;align=left;verticalAlign=top;spacingLeft=4;spacingRight=4;overflow=hidden;rotatable=0;points=[[0,0.5],[1,0.5]];portConstraint=eastwest;whiteSpace=wrap;html=1;" vertex="1" parent="A8ja2pDoUAVjySYwNpPa-6">
          <mxGeometry y="26" width="340" height="26" as="geometry" />
        </mxCell>
        <mxCell id="A8ja2pDoUAVjySYwNpPa-8" value="_api: ctp_trade_api*" style="text;strokeColor=#6c8ebf;fillColor=#dae8fc;align=left;verticalAlign=top;spacingLeft=4;spacingRight=4;overflow=hidden;rotatable=0;points=[[0,0.5],[1,0.5]];portConstraint=eastwest;whiteSpace=wrap;html=1;" vertex="1" parent="A8ja2pDoUAVjySYwNpPa-6">
          <mxGeometry y="52" width="340" height="26" as="geometry" />
        </mxCell>
        <mxCell id="A8ja2pDoUAVjySYwNpPa-9" value="生命周期：&lt;br&gt;&lt;span style=&quot;white-space: pre;&quot;&gt;&#x9;&lt;/span&gt;on_start( )&lt;br&gt;&lt;span style=&quot;white-space: pre;&quot;&gt;&#x9;&lt;/span&gt;on_stop( )&lt;br&gt;下单控制：&lt;br&gt;&lt;span style=&quot;white-space: pre;&quot;&gt;&#x9;&lt;/span&gt;on_enter_order( )&lt;br&gt;&lt;span style=&quot;white-space: pre;&quot;&gt;&#x9;&lt;/span&gt;on_cancel_order( )" style="text;strokeColor=#82b366;fillColor=#d5e8d4;align=left;verticalAlign=top;spacingLeft=4;spacingRight=4;overflow=hidden;rotatable=0;points=[[0,0.5],[1,0.5]];portConstraint=eastwest;whiteSpace=wrap;html=1;" vertex="1" parent="A8ja2pDoUAVjySYwNpPa-6">
          <mxGeometry y="78" width="340" height="102" as="geometry" />
        </mxCell>
        <mxCell id="A8ja2pDoUAVjySYwNpPa-10" value="order_gateway" style="swimlane;fontStyle=0;childLayout=stackLayout;horizontal=1;startSize=26;fillColor=#f5f5f5;horizontalStack=0;resizeParent=1;resizeParentMax=0;resizeLast=0;collapsible=1;marginBottom=0;whiteSpace=wrap;html=1;fontColor=#333333;strokeColor=#666666;" vertex="1" parent="1">
          <mxGeometry x="400" y="-680" width="340" height="920" as="geometry" />
        </mxCell>
        <mxCell id="A8ja2pDoUAVjySYwNpPa-11" value="_holds: unordered_map&amp;lt;string, open_position_t&amp;gt;" style="text;strokeColor=#6c8ebf;fillColor=#dae8fc;align=left;verticalAlign=top;spacingLeft=4;spacingRight=4;overflow=hidden;rotatable=0;points=[[0,0.5],[1,0.5]];portConstraint=eastwest;whiteSpace=wrap;html=1;" vertex="1" parent="A8ja2pDoUAVjySYwNpPa-10">
          <mxGeometry y="26" width="340" height="26" as="geometry" />
        </mxCell>
        <mxCell id="A8ja2pDoUAVjySYwNpPa-12" value="_orders: vector&amp;lt;order&amp;gt;" style="text;strokeColor=#6c8ebf;fillColor=#dae8fc;align=left;verticalAlign=top;spacingLeft=4;spacingRight=4;overflow=hidden;rotatable=0;points=[[0,0.5],[1,0.5]];portConstraint=eastwest;whiteSpace=wrap;html=1;" vertex="1" parent="A8ja2pDoUAVjySYwNpPa-10">
          <mxGeometry y="52" width="340" height="26" as="geometry" />
        </mxCell>
        <mxCell id="A8ja2pDoUAVjySYwNpPa-13" value="_fund: rsFixedDecimal" style="text;strokeColor=#6c8ebf;fillColor=#dae8fc;align=left;verticalAlign=top;spacingLeft=4;spacingRight=4;overflow=hidden;rotatable=0;points=[[0,0.5],[1,0.5]];portConstraint=eastwest;whiteSpace=wrap;html=1;" vertex="1" parent="A8ja2pDoUAVjySYwNpPa-10">
          <mxGeometry y="78" width="340" height="26" as="geometry" />
        </mxCell>
        <mxCell id="A8ja2pDoUAVjySYwNpPa-14" value="_broker: string" style="text;strokeColor=#6c8ebf;fillColor=#dae8fc;align=left;verticalAlign=top;spacingLeft=4;spacingRight=4;overflow=hidden;rotatable=0;points=[[0,0.5],[1,0.5]];portConstraint=eastwest;whiteSpace=wrap;html=1;" vertex="1" parent="A8ja2pDoUAVjySYwNpPa-10">
          <mxGeometry y="104" width="340" height="26" as="geometry" />
        </mxCell>
        <mxCell id="A8ja2pDoUAVjySYwNpPa-15" value="_algos: vector&amp;lt;algo*&amp;gt;" style="text;strokeColor=#6c8ebf;fillColor=#dae8fc;align=left;verticalAlign=top;spacingLeft=4;spacingRight=4;overflow=hidden;rotatable=0;points=[[0,0.5],[1,0.5]];portConstraint=eastwest;whiteSpace=wrap;html=1;" vertex="1" parent="A8ja2pDoUAVjySYwNpPa-10">
          <mxGeometry y="130" width="340" height="26" as="geometry" />
        </mxCell>
        <mxCell id="A8ja2pDoUAVjySYwNpPa-16" value="_order_monitor: unordered_map&amp;lt;int, tuple&amp;lt;order*, time&amp;gt;&amp;gt;" style="text;strokeColor=#6c8ebf;fillColor=#dae8fc;align=left;verticalAlign=top;spacingLeft=4;spacingRight=4;overflow=hidden;rotatable=0;points=[[0,0.5],[1,0.5]];portConstraint=eastwest;whiteSpace=wrap;html=1;" vertex="1" parent="A8ja2pDoUAVjySYwNpPa-10">
          <mxGeometry y="156" width="340" height="26" as="geometry" />
        </mxCell>
        <mxCell id="A8ja2pDoUAVjySYwNpPa-17" value="一些流程控制mutex变量，超时时长变量" style="text;strokeColor=#6c8ebf;fillColor=#dae8fc;align=left;verticalAlign=top;spacingLeft=4;spacingRight=4;overflow=hidden;rotatable=0;points=[[0,0.5],[1,0.5]];portConstraint=eastwest;whiteSpace=wrap;html=1;" vertex="1" parent="A8ja2pDoUAVjySYwNpPa-10">
          <mxGeometry y="182" width="340" height="26" as="geometry" />
        </mxCell>
        <mxCell id="A8ja2pDoUAVjySYwNpPa-18" value="_active_buy_price: map&amp;lt;PriceAscending, int&amp;gt;" style="text;strokeColor=#6c8ebf;fillColor=#dae8fc;align=left;verticalAlign=top;spacingLeft=4;spacingRight=4;overflow=hidden;rotatable=0;points=[[0,0.5],[1,0.5]];portConstraint=eastwest;whiteSpace=wrap;html=1;" vertex="1" parent="A8ja2pDoUAVjySYwNpPa-10">
          <mxGeometry y="208" width="340" height="26" as="geometry" />
        </mxCell>
        <mxCell id="A8ja2pDoUAVjySYwNpPa-19" value="_active_sell_price: map&amp;lt;PriceDescending, int&amp;gt;" style="text;strokeColor=#6c8ebf;fillColor=#dae8fc;align=left;verticalAlign=top;spacingLeft=4;spacingRight=4;overflow=hidden;rotatable=0;points=[[0,0.5],[1,0.5]];portConstraint=eastwest;whiteSpace=wrap;html=1;" vertex="1" parent="A8ja2pDoUAVjySYwNpPa-10">
          <mxGeometry y="234" width="340" height="26" as="geometry" />
        </mxCell>
        <mxCell id="A8ja2pDoUAVjySYwNpPa-20" value="流控类参数和内部流程门限值" style="text;strokeColor=#6c8ebf;fillColor=#dae8fc;align=left;verticalAlign=top;spacingLeft=4;spacingRight=4;overflow=hidden;rotatable=0;points=[[0,0.5],[1,0.5]];portConstraint=eastwest;whiteSpace=wrap;html=1;" vertex="1" parent="A8ja2pDoUAVjySYwNpPa-10">
          <mxGeometry y="260" width="340" height="26" as="geometry" />
        </mxCell>
        <mxCell id="A8ja2pDoUAVjySYwNpPa-21" value="&lt;br&gt;生命周期：&lt;br&gt;&lt;span style=&quot;&quot;&gt;&lt;span style=&quot;white-space: pre;&quot;&gt;&amp;nbsp;&amp;nbsp;&amp;nbsp;&amp;nbsp;&lt;span style=&quot;white-space: pre;&quot;&gt;&#x9;&lt;/span&gt;&lt;/span&gt;&lt;/span&gt;start( )&lt;br&gt;&lt;span style=&quot;&quot;&gt;&lt;span style=&quot;white-space: pre;&quot;&gt;&amp;nbsp;&amp;nbsp;&amp;nbsp;&amp;nbsp;&lt;span style=&quot;white-space: pre;&quot;&gt;&#x9;&lt;/span&gt;virtual &lt;/span&gt;&lt;/span&gt;on_start( )&amp;nbsp;&lt;br&gt;&lt;span style=&quot;&quot;&gt;&lt;span style=&quot;white-space: pre;&quot;&gt;&amp;nbsp;&amp;nbsp;&amp;nbsp;&amp;nbsp;&lt;span style=&quot;white-space: pre;&quot;&gt;&#x9;&lt;/span&gt;&lt;/span&gt;&lt;/span&gt;stop( )&lt;br&gt;&lt;span style=&quot;white-space: pre;&quot;&gt;&#x9;&lt;/span&gt;virtual on_stop( )&lt;br&gt;&lt;span style=&quot;white-space: pre;&quot;&gt;&#x9;&lt;/span&gt;&lt;br&gt;下单控制：&lt;br&gt;&lt;span style=&quot;white-space: pre;&quot;&gt;&#x9;&lt;/span&gt;enter_order( )&lt;br&gt;&lt;span style=&quot;&quot;&gt;&lt;span style=&quot;white-space: pre;&quot;&gt;&amp;nbsp;&lt;span style=&quot;white-space: pre;&quot;&gt;&#x9;&lt;/span&gt;virtual &lt;/span&gt;&lt;/span&gt;on_enter_order( )&lt;br&gt;&lt;span style=&quot;white-space: pre;&quot;&gt;&#x9;&lt;/span&gt;cancel_order( )&lt;br&gt;&lt;span style=&quot;&quot;&gt;&lt;span style=&quot;white-space: pre;&quot;&gt;&amp;nbsp;&lt;span style=&quot;white-space: pre;&quot;&gt;&#x9;&lt;/span&gt;&lt;/span&gt;&lt;/span&gt;on_cancel_order( )&lt;br&gt;&lt;span style=&quot;white-space: pre;&quot;&gt;&#x9;&lt;/span&gt;msg_order_accepted&lt;br&gt;&lt;br&gt;交易类流程函数接口&lt;br&gt;查询类流程函数接口&lt;br&gt;回显类流程函数接口&lt;br&gt;&lt;br&gt;业务流程函数：&lt;br&gt;&lt;span style=&quot;white-space: pre;&quot;&gt;&#x9;&lt;/span&gt;virtual register_command( )&lt;br&gt;&lt;span style=&quot;white-space: pre;&quot;&gt;&#x9;&lt;/span&gt;store( )&lt;br&gt;&lt;span style=&quot;white-space: pre;&quot;&gt;&#x9;&lt;/span&gt;virtual on_store( )&lt;br&gt;&lt;span style=&quot;white-space: pre;&quot;&gt;&#x9;&lt;/span&gt;load( )&lt;br&gt;&lt;span style=&quot;white-space: pre;&quot;&gt;&#x9;&lt;/span&gt;virtual on_load( )&lt;br&gt;&lt;span style=&quot;white-space: pre;&quot;&gt;&#x9;&lt;/span&gt;on_order_gateway_connected( )&lt;br&gt;&lt;span style=&quot;white-space: pre;&quot;&gt;&#x9;&lt;/span&gt;on_order_gateway_disconnected( )&lt;br&gt;&lt;span style=&quot;white-space: pre;&quot;&gt;&#x9;&lt;/span&gt;start_request_monitor( )&lt;br&gt;&lt;span style=&quot;white-space: pre;&quot;&gt;&#x9;&lt;/span&gt;add_request( )&lt;br&gt;&lt;span style=&quot;white-space: pre;&quot;&gt;&#x9;&lt;/span&gt;remove_request( )&lt;br&gt;&lt;span style=&quot;white-space: pre;&quot;&gt;&#x9;&lt;/span&gt;on_algo( )&lt;br&gt;&lt;br&gt;getters &amp;amp; setters" style="text;strokeColor=#82b366;fillColor=#d5e8d4;align=left;verticalAlign=top;spacingLeft=4;spacingRight=4;overflow=hidden;rotatable=0;points=[[0,0.5],[1,0.5]];portConstraint=eastwest;whiteSpace=wrap;html=1;" vertex="1" parent="A8ja2pDoUAVjySYwNpPa-10">
          <mxGeometry y="286" width="340" height="634" as="geometry" />
        </mxCell>
        <mxCell id="A8ja2pDoUAVjySYwNpPa-22" value="module" style="swimlane;fontStyle=0;childLayout=stackLayout;horizontal=1;startSize=26;fillColor=#f5f5f5;horizontalStack=0;resizeParent=1;resizeParentMax=0;resizeLast=0;collapsible=1;marginBottom=0;whiteSpace=wrap;html=1;fontColor=#333333;strokeColor=#666666;" vertex="1" parent="1">
          <mxGeometry x="400" y="-1040" width="340" height="320" as="geometry" />
        </mxCell>
        <mxCell id="A8ja2pDoUAVjySYwNpPa-23" value="_name: string" style="text;strokeColor=#6c8ebf;fillColor=#dae8fc;align=left;verticalAlign=top;spacingLeft=4;spacingRight=4;overflow=hidden;rotatable=0;points=[[0,0.5],[1,0.5]];portConstraint=eastwest;whiteSpace=wrap;html=1;" vertex="1" parent="A8ja2pDoUAVjySYwNpPa-22">
          <mxGeometry y="26" width="340" height="26" as="geometry" />
        </mxCell>
        <mxCell id="A8ja2pDoUAVjySYwNpPa-24" value="_id: string" style="text;strokeColor=#6c8ebf;fillColor=#dae8fc;align=left;verticalAlign=top;spacingLeft=4;spacingRight=4;overflow=hidden;rotatable=0;points=[[0,0.5],[1,0.5]];portConstraint=eastwest;whiteSpace=wrap;html=1;" vertex="1" parent="A8ja2pDoUAVjySYwNpPa-22">
          <mxGeometry y="52" width="340" height="26" as="geometry" />
        </mxCell>
        <mxCell id="A8ja2pDoUAVjySYwNpPa-25" value="_handle: void*" style="text;strokeColor=#6c8ebf;fillColor=#dae8fc;align=left;verticalAlign=top;spacingLeft=4;spacingRight=4;overflow=hidden;rotatable=0;points=[[0,0.5],[1,0.5]];portConstraint=eastwest;whiteSpace=wrap;html=1;" vertex="1" parent="A8ja2pDoUAVjySYwNpPa-22">
          <mxGeometry y="78" width="340" height="26" as="geometry" />
        </mxCell>
        <mxCell id="A8ja2pDoUAVjySYwNpPa-26" value="_config: XmlElement*" style="text;strokeColor=#6c8ebf;fillColor=#dae8fc;align=left;verticalAlign=top;spacingLeft=4;spacingRight=4;overflow=hidden;rotatable=0;points=[[0,0.5],[1,0.5]];portConstraint=eastwest;whiteSpace=wrap;html=1;" vertex="1" parent="A8ja2pDoUAVjySYwNpPa-22">
          <mxGeometry y="104" width="340" height="26" as="geometry" />
        </mxCell>
        <mxCell id="A8ja2pDoUAVjySYwNpPa-27" value="_device: rsDevice*" style="text;strokeColor=#6c8ebf;fillColor=#dae8fc;align=left;verticalAlign=top;spacingLeft=4;spacingRight=4;overflow=hidden;rotatable=0;points=[[0,0.5],[1,0.5]];portConstraint=eastwest;whiteSpace=wrap;html=1;" vertex="1" parent="A8ja2pDoUAVjySYwNpPa-22">
          <mxGeometry y="130" width="340" height="26" as="geometry" />
        </mxCell>
        <mxCell id="A8ja2pDoUAVjySYwNpPa-28" value="生命周期：&lt;br&gt;&lt;span style=&quot;white-space: pre;&quot;&gt;&#x9;&lt;/span&gt;virtual init( )&lt;br&gt;&lt;span style=&quot;white-space: pre;&quot;&gt;&#x9;&lt;/span&gt;virtual start( )&lt;br&gt;&lt;span style=&quot;white-space: pre;&quot;&gt;&#x9;&lt;/span&gt;virtual stop( )&lt;br&gt;&lt;span style=&quot;white-space: pre;&quot;&gt;&#x9;&lt;/span&gt;virtual fini( )&lt;br&gt;基础功能：&lt;br&gt;&lt;span style=&quot;white-space: pre;&quot;&gt;&#x9;&lt;/span&gt;register_command( )&lt;br&gt;&lt;span style=&quot;white-space: pre;&quot;&gt;&#x9;&lt;/span&gt;get_scheduler( ) &lt;i&gt;&lt;font color=&quot;#0000ff&quot;&gt;{ _device-&amp;gt;getScheduler() }&lt;/font&gt;&lt;/i&gt;&lt;br&gt;&lt;span style=&quot;font-style: italic; white-space: pre;&quot;&gt;&#x9;&lt;/span&gt;invoke( )&lt;br&gt;&lt;span style=&quot;white-space: pre;&quot;&gt;&#x9;&lt;/span&gt;invoke_delayed( )" style="text;strokeColor=#82b366;fillColor=#d5e8d4;align=left;verticalAlign=top;spacingLeft=4;spacingRight=4;overflow=hidden;rotatable=0;points=[[0,0.5],[1,0.5]];portConstraint=eastwest;whiteSpace=wrap;html=1;" vertex="1" parent="A8ja2pDoUAVjySYwNpPa-22">
          <mxGeometry y="156" width="340" height="164" as="geometry" />
        </mxCell>
        <mxCell id="A8ja2pDoUAVjySYwNpPa-29" value="rsDevice" style="swimlane;fontStyle=0;childLayout=stackLayout;horizontal=1;startSize=26;fillColor=#f5f5f5;horizontalStack=0;resizeParent=1;resizeParentMax=0;resizeLast=0;collapsible=1;marginBottom=0;whiteSpace=wrap;html=1;fontColor=#333333;strokeColor=#666666;" vertex="1" parent="1">
          <mxGeometry x="-100" y="-1040" width="340" height="810" as="geometry" />
        </mxCell>
        <mxCell id="A8ja2pDoUAVjySYwNpPa-30" value="_handler: void*" style="text;strokeColor=#6c8ebf;fillColor=#dae8fc;align=left;verticalAlign=top;spacingLeft=4;spacingRight=4;overflow=hidden;rotatable=0;points=[[0,0.5],[1,0.5]];portConstraint=eastwest;whiteSpace=wrap;html=1;" vertex="1" parent="A8ja2pDoUAVjySYwNpPa-29">
          <mxGeometry y="26" width="340" height="26" as="geometry" />
        </mxCell>
        <mxCell id="A8ja2pDoUAVjySYwNpPa-31" value="_name: string" style="text;strokeColor=#6c8ebf;fillColor=#dae8fc;align=left;verticalAlign=top;spacingLeft=4;spacingRight=4;overflow=hidden;rotatable=0;points=[[0,0.5],[1,0.5]];portConstraint=eastwest;whiteSpace=wrap;html=1;" vertex="1" parent="A8ja2pDoUAVjySYwNpPa-29">
          <mxGeometry y="52" width="340" height="26" as="geometry" />
        </mxCell>
        <mxCell id="A8ja2pDoUAVjySYwNpPa-32" value="_id: string" style="text;strokeColor=#6c8ebf;fillColor=#dae8fc;align=left;verticalAlign=top;spacingLeft=4;spacingRight=4;overflow=hidden;rotatable=0;points=[[0,0.5],[1,0.5]];portConstraint=eastwest;whiteSpace=wrap;html=1;" vertex="1" parent="A8ja2pDoUAVjySYwNpPa-29">
          <mxGeometry y="78" width="340" height="26" as="geometry" />
        </mxCell>
        <mxCell id="A8ja2pDoUAVjySYwNpPa-33" value="_orderDevice: rsDevice*" style="text;strokeColor=#6c8ebf;fillColor=#dae8fc;align=left;verticalAlign=top;spacingLeft=4;spacingRight=4;overflow=hidden;rotatable=0;points=[[0,0.5],[1,0.5]];portConstraint=eastwest;whiteSpace=wrap;html=1;" vertex="1" parent="A8ja2pDoUAVjySYwNpPa-29">
          <mxGeometry y="104" width="340" height="26" as="geometry" />
        </mxCell>
        <mxCell id="A8ja2pDoUAVjySYwNpPa-34" value="_config: XmlElement*" style="text;strokeColor=#6c8ebf;fillColor=#dae8fc;align=left;verticalAlign=top;spacingLeft=4;spacingRight=4;overflow=hidden;rotatable=0;points=[[0,0.5],[1,0.5]];portConstraint=eastwest;whiteSpace=wrap;html=1;" vertex="1" parent="A8ja2pDoUAVjySYwNpPa-29">
          <mxGeometry y="130" width="340" height="26" as="geometry" />
        </mxCell>
        <mxCell id="A8ja2pDoUAVjySYwNpPa-35" value="_appliance: rsAppliance" style="text;strokeColor=#6c8ebf;fillColor=#dae8fc;align=left;verticalAlign=top;spacingLeft=4;spacingRight=4;overflow=hidden;rotatable=0;points=[[0,0.5],[1,0.5]];portConstraint=eastwest;whiteSpace=wrap;html=1;" vertex="1" parent="A8ja2pDoUAVjySYwNpPa-29">
          <mxGeometry y="156" width="340" height="26" as="geometry" />
        </mxCell>
        <mxCell id="A8ja2pDoUAVjySYwNpPa-36" value="_device_descriptor: int" style="text;strokeColor=#6c8ebf;fillColor=#dae8fc;align=left;verticalAlign=top;spacingLeft=4;spacingRight=4;overflow=hidden;rotatable=0;points=[[0,0.5],[1,0.5]];portConstraint=eastwest;whiteSpace=wrap;html=1;" vertex="1" parent="A8ja2pDoUAVjySYwNpPa-29">
          <mxGeometry y="182" width="340" height="26" as="geometry" />
        </mxCell>
        <mxCell id="A8ja2pDoUAVjySYwNpPa-37" value="tds相关变量" style="text;strokeColor=#6c8ebf;fillColor=#dae8fc;align=left;verticalAlign=top;spacingLeft=4;spacingRight=4;overflow=hidden;rotatable=0;points=[[0,0.5],[1,0.5]];portConstraint=eastwest;whiteSpace=wrap;html=1;" vertex="1" parent="A8ja2pDoUAVjySYwNpPa-29">
          <mxGeometry y="208" width="340" height="26" as="geometry" />
        </mxCell>
        <mxCell id="A8ja2pDoUAVjySYwNpPa-38" value="_message_queue: message_queue" style="text;strokeColor=#6c8ebf;fillColor=#dae8fc;align=left;verticalAlign=top;spacingLeft=4;spacingRight=4;overflow=hidden;rotatable=0;points=[[0,0.5],[1,0.5]];portConstraint=eastwest;whiteSpace=wrap;html=1;" vertex="1" parent="A8ja2pDoUAVjySYwNpPa-29">
          <mxGeometry y="234" width="340" height="26" as="geometry" />
        </mxCell>
        <mxCell id="A8ja2pDoUAVjySYwNpPa-39" value="_device_full_name: string" style="text;strokeColor=#6c8ebf;fillColor=#dae8fc;align=left;verticalAlign=top;spacingLeft=4;spacingRight=4;overflow=hidden;rotatable=0;points=[[0,0.5],[1,0.5]];portConstraint=eastwest;whiteSpace=wrap;html=1;" vertex="1" parent="A8ja2pDoUAVjySYwNpPa-29">
          <mxGeometry y="260" width="340" height="26" as="geometry" />
        </mxCell>
        <mxCell id="A8ja2pDoUAVjySYwNpPa-40" value="_hostName string" style="text;strokeColor=#6c8ebf;fillColor=#dae8fc;align=left;verticalAlign=top;spacingLeft=4;spacingRight=4;overflow=hidden;rotatable=0;points=[[0,0.5],[1,0.5]];portConstraint=eastwest;whiteSpace=wrap;html=1;" vertex="1" parent="A8ja2pDoUAVjySYwNpPa-29">
          <mxGeometry y="286" width="340" height="26" as="geometry" />
        </mxCell>
        <mxCell id="A8ja2pDoUAVjySYwNpPa-41" value="" style="text;strokeColor=#6c8ebf;fillColor=#dae8fc;align=left;verticalAlign=top;spacingLeft=4;spacingRight=4;overflow=hidden;rotatable=0;points=[[0,0.5],[1,0.5]];portConstraint=eastwest;whiteSpace=wrap;html=1;" vertex="1" parent="A8ja2pDoUAVjySYwNpPa-29">
          <mxGeometry y="312" width="340" height="26" as="geometry" />
        </mxCell>
        <mxCell id="A8ja2pDoUAVjySYwNpPa-42" value="" style="text;strokeColor=#6c8ebf;fillColor=#dae8fc;align=left;verticalAlign=top;spacingLeft=4;spacingRight=4;overflow=hidden;rotatable=0;points=[[0,0.5],[1,0.5]];portConstraint=eastwest;whiteSpace=wrap;html=1;" vertex="1" parent="A8ja2pDoUAVjySYwNpPa-29">
          <mxGeometry y="338" width="340" height="26" as="geometry" />
        </mxCell>
        <mxCell id="A8ja2pDoUAVjySYwNpPa-43" value="" style="text;strokeColor=#6c8ebf;fillColor=#dae8fc;align=left;verticalAlign=top;spacingLeft=4;spacingRight=4;overflow=hidden;rotatable=0;points=[[0,0.5],[1,0.5]];portConstraint=eastwest;whiteSpace=wrap;html=1;" vertex="1" parent="A8ja2pDoUAVjySYwNpPa-29">
          <mxGeometry y="364" width="340" height="26" as="geometry" />
        </mxCell>
        <mxCell id="A8ja2pDoUAVjySYwNpPa-44" value="生命周期：&lt;br&gt;&lt;span style=&quot;&quot;&gt;&lt;span style=&quot;white-space: pre;&quot;&gt;&amp;nbsp;&amp;nbsp;&amp;nbsp;&amp;nbsp;&lt;span style=&quot;white-space: pre;&quot;&gt;&#x9;&lt;/span&gt;&lt;/span&gt;&lt;/span&gt;virtual init( )&lt;br&gt;&lt;span style=&quot;&quot;&gt;&lt;span style=&quot;white-space: pre;&quot;&gt;&amp;nbsp;&amp;nbsp;&amp;nbsp;&amp;nbsp;&lt;span style=&quot;white-space: pre;&quot;&gt;&#x9;&lt;/span&gt;&lt;/span&gt;&lt;/span&gt;virtual&amp;nbsp;mainloop( )&lt;br&gt;&lt;span style=&quot;&quot;&gt;&lt;span style=&quot;white-space: pre;&quot;&gt;&amp;nbsp;&amp;nbsp;&amp;nbsp;&amp;nbsp;&lt;span style=&quot;white-space: pre;&quot;&gt;&#x9;&lt;/span&gt;virtual &lt;/span&gt;&lt;/span&gt;start( )&lt;br&gt;&lt;span style=&quot;&quot;&gt;&lt;span style=&quot;white-space: pre;&quot;&gt;&amp;nbsp;&amp;nbsp;&amp;nbsp;&amp;nbsp;&lt;span style=&quot;white-space: pre;&quot;&gt;&#x9;&lt;/span&gt;virtual &lt;/span&gt;&lt;/span&gt;stop( )&lt;br&gt;&lt;span style=&quot;&quot;&gt;&lt;span style=&quot;white-space: pre;&quot;&gt;&amp;nbsp;&amp;nbsp;&amp;nbsp;&amp;nbsp;&lt;span style=&quot;white-space: pre;&quot;&gt;&#x9;&lt;/span&gt;virtual &lt;/span&gt;&lt;/span&gt;cleanup( )&lt;br&gt;&lt;br&gt;状态判断类函数&lt;br&gt;&lt;br&gt;getters &amp;amp; setters&lt;br&gt;&lt;br&gt;&lt;br&gt;&lt;span style=&quot;white-space: pre;&quot;&gt;&#x9;&lt;/span&gt;&lt;br&gt;&lt;br&gt;&lt;br&gt;回调函数：&lt;br&gt;&lt;span style=&quot;&quot;&gt;&lt;span style=&quot;&quot;&gt;&amp;nbsp;&amp;nbsp;&amp;nbsp;&amp;nbsp;&lt;span style=&quot;&quot;&gt;&lt;span style=&quot;white-space: pre;&quot;&gt;&amp;nbsp;&amp;nbsp;&amp;nbsp;&amp;nbsp;&lt;/span&gt;&lt;/span&gt;&lt;/span&gt;&lt;/span&gt;onMessage( )&lt;br&gt;&lt;span style=&quot;&quot;&gt;&lt;span style=&quot;&quot;&gt;&amp;nbsp;&amp;nbsp;&amp;nbsp;&amp;nbsp;&lt;span style=&quot;&quot;&gt;&lt;span style=&quot;white-space: pre;&quot;&gt;&amp;nbsp;&amp;nbsp;&amp;nbsp;&amp;nbsp;&lt;/span&gt;&lt;/span&gt;&lt;/span&gt;&lt;/span&gt;at_thread_exit( )&lt;br&gt;&lt;span style=&quot;&quot;&gt;&lt;span style=&quot;&quot;&gt;&amp;nbsp;&amp;nbsp;&amp;nbsp;&amp;nbsp;&lt;span style=&quot;&quot;&gt;&lt;span style=&quot;white-space: pre;&quot;&gt;&amp;nbsp;&amp;nbsp;&amp;nbsp;&amp;nbsp;&lt;/span&gt;&lt;/span&gt;&lt;/span&gt;&lt;/span&gt;on_category( )&lt;br&gt;&lt;br&gt;状态配置类函数：&lt;br&gt;&lt;span style=&quot;&quot;&gt;&lt;span style=&quot;&quot;&gt;&amp;nbsp;&amp;nbsp;&amp;nbsp;&amp;nbsp;&lt;span style=&quot;&quot;&gt;&lt;span style=&quot;white-space: pre;&quot;&gt;&amp;nbsp;&amp;nbsp;&amp;nbsp;&amp;nbsp;&lt;/span&gt;&lt;/span&gt;&lt;/span&gt;&lt;/span&gt;make_mainloop_high_priority( )&lt;br&gt;&lt;span style=&quot;&quot;&gt;&lt;span style=&quot;&quot;&gt;&amp;nbsp;&amp;nbsp;&amp;nbsp;&amp;nbsp;&lt;span style=&quot;&quot;&gt;&lt;span style=&quot;white-space: pre;&quot;&gt;&amp;nbsp;&amp;nbsp;&amp;nbsp;&amp;nbsp;&lt;/span&gt;&lt;/span&gt;&lt;/span&gt;&lt;/span&gt;set_device_state( )&lt;br&gt;&lt;span style=&quot;&quot;&gt;&lt;span style=&quot;&quot;&gt;&amp;nbsp;&amp;nbsp;&amp;nbsp;&amp;nbsp;&lt;span style=&quot;&quot;&gt;&lt;span style=&quot;white-space: pre;&quot;&gt;&amp;nbsp;&amp;nbsp;&amp;nbsp;&amp;nbsp;&lt;/span&gt;&lt;/span&gt;&lt;/span&gt;&lt;/span&gt;handle_admin_commands( )&lt;br&gt;&lt;span style=&quot;&quot;&gt;&lt;span style=&quot;&quot;&gt;&amp;nbsp;&amp;nbsp;&amp;nbsp;&amp;nbsp;&lt;span style=&quot;&quot;&gt;&lt;span style=&quot;white-space: pre;&quot;&gt;&amp;nbsp;&amp;nbsp;&amp;nbsp;&amp;nbsp;&lt;/span&gt;&lt;/span&gt;register_command( )&lt;br&gt;&lt;span style=&quot;&quot;&gt;&lt;span style=&quot;white-space: pre;&quot;&gt;&amp;nbsp;&amp;nbsp;&amp;nbsp;&amp;nbsp;&lt;/span&gt;&lt;/span&gt;preInitPublish( ) &lt;br&gt;&lt;br&gt;流程函数：&lt;br&gt;&lt;span style=&quot;&quot;&gt;&lt;span style=&quot;white-space: pre;&quot;&gt;&amp;nbsp;&amp;nbsp;&amp;nbsp;&amp;nbsp;&lt;/span&gt;&lt;/span&gt;&lt;br&gt;&lt;span style=&quot;&quot;&gt;&lt;span style=&quot;white-space: pre;&quot;&gt;&amp;nbsp;&amp;nbsp;&amp;nbsp;&amp;nbsp;&lt;/span&gt;&lt;/span&gt;&lt;br&gt;&lt;/span&gt;&lt;/span&gt;" style="text;strokeColor=#82b366;fillColor=#d5e8d4;align=left;verticalAlign=top;spacingLeft=4;spacingRight=4;overflow=hidden;rotatable=0;points=[[0,0.5],[1,0.5]];portConstraint=eastwest;whiteSpace=wrap;html=1;" vertex="1" parent="A8ja2pDoUAVjySYwNpPa-29">
          <mxGeometry y="390" width="340" height="420" as="geometry" />
        </mxCell>
      </root>
    </mxGraphModel>
  </diagram>
</mxfile>
